<?xml version="1.0" encoding="utf-8"?>
<!-- Generator: Adobe Illustrator 27.0.1, SVG Export Plug-In . SVG Version: 6.00 Build 0)  -->
<svg version="1.1" id="Calque_1" xmlns="http://www.w3.org/2000/svg" xmlns:xlink="http://www.w3.org/1999/xlink" x="0px" y="0px"
	 viewBox="0 0 500 500" style="enable-background:new 0 0 500 500;" xml:space="preserve">
<style type="text/css">
	.st0{fill:#F5F5F5;}
	.st1{fill:#E6E6E6;}
	.st2{fill:#90CAF9;}
	.st3{opacity:0.1;}
	.st4{fill:#FFFFFF;}
	.st5{fill:#37474F;}
	.st6{fill:#263238;}
	.st7{fill:#455A64;}
	.st8{fill:#FAFAFA;}
	.st9{opacity:0.75;}
	.st10{opacity:0.1;enable-background:new    ;}
	.st11{opacity:0.65;fill:#FFFFFF;enable-background:new    ;}
	.st12{opacity:0.5;fill:#FFFFFF;enable-background:new    ;}
	.st13{opacity:0.2;enable-background:new    ;}
	.st14{opacity:0.4;enable-background:new    ;}
	.st15{opacity:0.15;fill:#FFFFFF;enable-background:new    ;}
	.st16{opacity:0.85;fill:#FFFFFF;enable-background:new    ;}
	.st17{opacity:0.8;fill:#90CAF9;enable-background:new    ;}
	.st18{opacity:0.2;fill:#FFFFFF;enable-background:new    ;}
	.st19{opacity:0.35;fill:#FFFFFF;enable-background:new    ;}
	.st20{opacity:0.8;fill:#FFFFFF;enable-background:new    ;}
	.st21{opacity:0.7;fill:#FFFFFF;enable-background:new    ;}
</style>
<g id="freepik--Floor--inject-97">
	<ellipse id="freepik--floor--inject-97" class="st0" cx="249" cy="349.9" rx="229.2" ry="124.3"/>
</g>
<g id="freepik--Shadows--inject-97">
	<path id="freepik--Shadow--inject-97" class="st1" d="M289.1,383.7l68.9-39.8c1.9-1,4.1-1,6,0l68.9,39.8c1.6,0.9,1.6,2.5,0,3.5
		l-68.8,39.8c-1.9,1-4.1,1-6,0l-69-39.8C287.5,386.2,287.5,384.6,289.1,383.7z"/>
	<path class="st1" d="M153,375.4l-96.2-55.6c-1.2-0.6-2.2-1.6-2.8-2.8c-1.6-3.1-0.3-6.9,2.8-8.5l70.3-40.6c3.1-1.7,6.8-1.7,9.9,0
		l96.2,55.6c1.2,0.6,2.2,1.6,2.8,2.8c1.6,3.1,0.3,6.9-2.8,8.5l-70.3,40.6c-1.5,0.8-3.2,1.3-4.9,1.2
		C156.2,376.6,154.5,376.2,153,375.4z"/>
</g>
<g id="freepik--Plants--inject-97">
	<g id="freepik--plants--inject-97">
		<path class="st2" d="M77,307.8l-7.5-10c-2.1-16.9-8.6-30.1-15.6-37.7c-7-7.6-6.5-18.8,0.8-19.7c7.8-1,16.3,8.3,21.1,17.8
			c6.6,13.2,5.2,27.3,5.3,35L77,307.8z"/>
		<g class="st3">
			<path d="M77,307.8l-7.5-10c-2.1-16.9-8.6-30.1-15.6-37.7c-7-7.6-6.5-18.8,0.8-19.7c7.8-1,16.3,8.3,21.1,17.8
				c6.6,13.2,5.2,27.3,5.3,35L77,307.8z"/>
		</g>
		<path class="st4" d="M75,299.2C75,299.2,75,299.2,75,299.2c0.3,0,0.6-0.2,0.6-0.5c2-22.1-4.2-40.8-18.1-54.2l0,0
			c-0.2-0.2-0.6-0.2-0.8,0c-0.2,0.2-0.2,0.6,0,0.8c13.6,13.1,19.8,31.6,17.8,53.3C74.5,298.9,74.7,299.1,75,299.2L75,299.2z"/>
		<path class="st2" d="M76.9,284.7c-0.3-4.5-6.9-9-6.9-9c0.6,4-0.1,8-2,11.6c0.6-3.2,0.8-6.4,0.8-9.6c-0.1-2.9-1.3-4.3-3.5-5.9
			c-2-1.4-4.4-2.2-6.9-2.1c0,3.4-2.7,6.7-2.7,6.7s-0.1-6.7-1.9-9s-13.8-3.5-17.4-3.2s-5.4,0-5.3,4.6s1.3,14.7,2,14.5
			c8.9-0.8,14.5,1.6,14.5,1.6C37.4,286,33.8,290,33.8,290c0.8,7.8,5.7,8.5,5.7,8.5c4.7-2,9.7-3.2,14.8-3.5c-4.9,1.4-9.2,8.4-9.2,8.4
			s2.9,4.4,11.1,4.4c4.7,0.1,9.4-1.1,13.6-3.4C77.9,298,77.2,289.2,76.9,284.7z"/>
		<path class="st4" d="M69.9,304.8c0.3-0.1,0.4-0.4,0.4-0.7c-4.4-14.7-26.3-34.5-34.8-37.5c0,0,0,0,0,0c-0.3-0.1-0.6,0.1-0.6,0.3
			c0,0,0,0,0,0c-0.1,0.3,0,0.6,0.3,0.7c8.3,3,29.8,22.4,34.1,36.9c0.1,0.2,0.2,0.3,0.4,0.4C69.7,304.9,69.8,304.9,69.9,304.8z"/>
	</g>
</g>
<g id="freepik--Lines--inject-97">
	<path class="st2" d="M232.7,376.9l-42.5-24.5c0,0-0.1,0-0.1-0.1c-0.2-0.2-0.3-0.5-0.1-0.7s0.5-0.3,0.7-0.1l42.5,24.5
		c1.2,0.6,2.6,0.6,3.8,0l32.3-18.6c1.5-0.8,3.3-0.8,4.8,0l30.3,17.5c0,0,0.1,0,0.1,0.1c0.2,0.2,0.3,0.5,0.1,0.7s-0.5,0.3-0.7,0.1
		l-30.3-17.5c-1.2-0.6-2.6-0.6-3.8,0l-32.2,18.6c-0.7,0.4-1.6,0.6-2.4,0.6C234.3,377.5,233.4,377.3,232.7,376.9z"/>
	<path class="st2" d="M312,371.1l-38.4-22.2c-1.2-0.6-2.6-0.6-3.8,0l-32.2,18.6c-1.5,0.8-3.3,0.8-4.8,0l-34.4-19.9
		c0,0-0.1,0-0.1-0.1c-0.2-0.2-0.3-0.5-0.1-0.7s0.5-0.3,0.7-0.1l34.4,19.9c1.2,0.6,2.6,0.6,3.8,0l32.2-18.6c1.5-0.8,3.3-0.8,4.8,0
		l38.4,22.2c0.2,0.1,0.3,0.4,0.2,0.7c-0.1,0.2-0.3,0.3-0.4,0.2C312.2,371.2,312.1,371.1,312,371.1z"/>
	<path class="st2" d="M320.1,366.4l-46.5-26.9c-1.2-0.6-2.6-0.6-3.8,0l-32.2,18.6c-1.5,0.8-3.3,0.8-4.8,0l-26.6-15.4c0,0,0,0,0,0
		c-0.2-0.1-0.3-0.4-0.2-0.7c0.1-0.2,0.4-0.3,0.7-0.2l26.6,15.4c1.2,0.6,2.6,0.6,3.8,0l32.2-18.6c1.5-0.8,3.3-0.8,4.8,0l46.6,26.9
		c0.2,0.1,0.3,0.4,0.2,0.7c-0.1,0.2-0.3,0.2-0.4,0.2C320.3,366.5,320.2,366.5,320.1,366.4z"/>
	<path class="st2" d="M328.3,361.7l-54.7-31.6c-1.2-0.6-2.6-0.6-3.8,0l-32.2,18.6c-1.5,0.8-3.3,0.8-4.8,0l-18.1-10.5
		c-0.2-0.1-0.3-0.4-0.2-0.6c0.1-0.3,0.4-0.4,0.7-0.2l18.1,10.5c1.2,0.6,2.6,0.6,3.8,0l32.2-18.6c1.5-0.8,3.3-0.8,4.8,0l54.6,31.6
		c0.2,0.1,0.2,0.3,0.2,0.4c0,0.3-0.2,0.5-0.5,0.5C328.4,361.8,328.3,361.8,328.3,361.7z"/>
</g>
<g id="freepik--Device--inject-97">
	<g id="freepik--Laptop--inject-97">
		<g id="freepik--laptop--inject-97">
			<path class="st5" d="M233.4,320.7l-99.1-57.2c-1.6-0.8-3.6-0.8-5.2,0l-72.5,41.8c-0.9,0.5-1.6,1.2-2,2c-1.2,2.4-0.3,5.3,2,6.6
				l99.1,57.2c1.6,0.8,3.5,0.8,5.2,0l72.4-41.8c1.5-0.9,2.5-2.5,2.6-4.3C235.8,323.3,234.9,321.7,233.4,320.7z"/>
			<path class="st6" d="M160.9,365.5l72.4-41.8c1.3-0.8,1.4-2,0.3-2.8c0.7,0.5,1.3,1.1,1.8,1.9c1.3,2.4,0.4,5.3-2,6.6l-72.4,41.8
				c-0.8,0.4-1.7,0.6-2.6,0.6v-5.6C159.2,366.2,160.1,366,160.9,365.5z"/>
			<path class="st7" d="M233.4,320.7l-99.1-57.2c-1.5-1-2.5-2.7-2.6-4.5v-86.4c0-1,0.2-1.9,0.7-2.8c1.4-2.3,4.4-3,6.7-1.5l99.1,57.2
				c1.5,1,2.5,2.7,2.6,4.5v86.4c-0.1,1.8-1,3.4-2.4,4.4C236.8,321.6,234.9,321.5,233.4,320.7z"/>
			<path class="st6" d="M235.9,319.2v-86.4c0-0.9-0.3-1.8-0.8-2.5l0,0l4.8-2.8c0.5,0.8,0.7,1.6,0.8,2.5v86.4c0,0.9-0.2,1.7-0.6,2.5
				c-1.3,2.3-4.2,3.2-6.5,1.9C234.9,321.4,235.9,320.8,235.9,319.2z"/>
			<path class="st5" d="M233.3,228.3l-99.1-57.2c-1.4-0.8-2.6-0.1-2.6,1.5V259c0.1,1.8,1.1,3.5,2.6,4.5l99.1,57.2
				c1.4,0.8,2.6,0.2,2.6-1.5v-86.4C235.8,231,234.9,229.3,233.3,228.3z"/>
			<path class="st7" d="M233.4,320.7l-99.1-57.2c-1.6-0.8-3.6-0.8-5.2,0l-72.5,41.8c-1.4,0.8-1.4,2.2,0,3l99.1,57.2
				c1.6,0.8,3.5,0.8,5.2,0l72.4-41.8C234.8,322.9,234.8,321.5,233.4,320.7z"/>
			<path class="st8" d="M233.5,235.8v74.9c0,1-0.7,1.4-1.5,0.9l-95.6-55.1c-0.9-0.6-1.5-1.6-1.5-2.7v-74.8c0-1,0.7-1.4,1.5-0.9
				l95.6,55.1C232.9,233.7,233.4,234.7,233.5,235.8z"/>
			<path class="st2" d="M225.5,322c0.1,0.4-0.1,0.9-0.6,1l-4.7,2.7c-0.8,0.4-1.8,0.4-2.6,0l-92-53.1c-0.2-0.1-0.4-0.3-0.5-0.5
				c-0.1-0.4,0.1-0.9,0.5-1l4.7-2.7c0.8-0.4,1.8-0.4,2.6,0l92,53.1C225.2,321.5,225.4,321.8,225.5,322z"/>
			<path class="st6" d="M225.5,322c0.1,0.4-0.1,0.9-0.6,1l-4.7,2.7c-0.8,0.4-1.8,0.4-2.6,0l-92-53.1c-0.2-0.1-0.4-0.3-0.5-0.5
				c-0.1-0.4,0.1-0.9,0.5-1l4.7-2.7c0.8-0.4,1.8-0.4,2.6,0l92,53.1C225.2,321.5,225.4,321.8,225.5,322z"/>
			<path class="st6" d="M213.3,329c0.1,0.4-0.1,0.8-0.5,1l-29,16.6c-0.8,0.4-1.8,0.4-2.6,0l-91.9-53.1c-0.2-0.1-0.4-0.3-0.5-0.5
				c-0.1-0.4,0.1-0.8,0.5-1l28.9-16.7c0.8-0.4,1.8-0.4,2.6,0l92,53.1C213.1,328.6,213.2,328.8,213.3,329z"/>
			<path class="st2" d="M130.8,299.2l3.3-1.9c0.1-0.1,0.1-0.2,0-0.3l-2.8-1.6c-0.1-0.1-0.3-0.1-0.5,0l-3.3,1.9
				c-0.1,0.1-0.1,0.2,0,0.3l2.9,1.7C130.5,299.3,130.6,299.3,130.8,299.2z M135.6,292.6l-3.3,1.9c-0.1,0.1-0.1,0.2,0,0.3l2.9,1.7
				c0.1,0.1,0.3,0.1,0.5,0l3.3-1.9c0.1-0.1,0.1-0.2,0-0.3l-2.9-1.7C135.9,292.6,135.7,292.6,135.6,292.6z M144.9,298l-3.3,1.9
				c-0.1,0.1-0.1,0.2,0,0.3l4.9,2.8c0.1,0.1,0.3,0.1,0.5,0l3.3-1.9c0.1-0.1,0.1-0.2,0-0.3l-4.9-2.8C145.2,297.9,145,297.9,144.9,298
				z M140.2,295.1c-0.1-0.1-0.3-0.1-0.5,0l-3.3,1.9c-0.1,0.1-0.1,0.2,0,0.3l2.9,1.7c0.1,0.1,0.3,0.1,0.5,0l3.3-1.9
				c0.1-0.1,0.1-0.2,0-0.3L140.2,295.1L140.2,295.1z M151.5,301.6c-0.1-0.1-0.3-0.1-0.4,0l-3.4,1.9c-0.1,0.1-0.1,0.2,0,0.3l2.9,1.7
				c0.1,0.1,0.3,0.1,0.5,0l3.3-1.9c0.1-0.1,0.1-0.2,0-0.3L151.5,301.6L151.5,301.6z M155.3,304l-3.3,1.9c-0.1,0.1-0.1,0.2,0,0.3
				l2.9,1.7c0.1,0.1,0.3,0.1,0.5,0l3.3-1.9c0.1-0.1,0.1-0.2,0-0.3l-2.9-1.7C155.6,303.9,155.4,303.9,155.3,304z M142.6,311.9
				c0.1,0.1,0.3,0.1,0.5,0l3.3-1.9c0.1-0.1,0.1-0.2,0-0.3l-2.9-1.7c-0.1-0.1-0.3-0.1-0.5,0l-3.3,1.9c-0.1,0.1-0.1,0.2,0,0.3
				L142.6,311.9L142.6,311.9z M146.9,314.3c0.2,0.1,0.3,0.1,0.5,0l3.3-1.9c0.1-0.1,0.1-0.2,0-0.3l-2.9-1.7c-0.1-0.1-0.3-0.1-0.5,0
				l-3.3,1.9c-0.1,0.1-0.1,0.2,0,0.3L146.9,314.3L146.9,314.3z M151.6,316.7l3.3-1.9c0.1-0.1,0.1-0.2,0-0.3l-2.9-1.7
				c-0.1-0.1-0.3-0.1-0.5,0l-3.3,1.9c-0.1,0.1-0.1,0.2,0,0.3l2.9,1.7C151.2,316.8,151.4,316.8,151.6,316.7z M155.3,319.1
				c0.2,0.1,0.3,0.1,0.5,0l3.3-1.9c0.1-0.1,0.1-0.2,0-0.3l-2.9-1.7c-0.1-0.1-0.3-0.1-0.5,0l-3.3,1.9c-0.1,0.1-0.1,0.2,0,0.3
				L155.3,319.1L155.3,319.1z M134.6,301.7c0.2,0.1,0.3,0.1,0.5,0l3.3-1.9c0.1-0.1,0.1-0.2,0-0.3l-2.9-1.7c-0.1-0.1-0.3-0.1-0.5,0
				l-3.3,1.9c-0.1,0.1-0.1,0.2,0,0.3L134.6,301.7L134.6,301.7z M138.4,309.4c0.2,0.1,0.3,0.1,0.5,0l3.3-1.9c0.1-0.1,0.1-0.2,0-0.3
				l-2.7-1.5c-0.1-0.1-0.1-0.2,0-0.3l4.3-2.5c0.1-0.1,0.1-0.2,0-0.3l-3.3-1.9c-0.1-0.1-0.3-0.1-0.5,0l-8.1,4.7
				c-0.1,0.1-0.1,0.2,0,0.3L138.4,309.4L138.4,309.4z M160,306.5c-0.1-0.1-0.3-0.1-0.4,0l-3.3,1.9c-0.1,0.1-0.1,0.2,0,0.3l2.9,1.7
				c0.1,0.1,0.3,0.1,0.5,0l3.3-1.9c0.1-0.1,0.1-0.2,0-0.3L160,306.5L160,306.5z M164.2,308.9c-0.1-0.1-0.3-0.1-0.4,0l-3.3,1.9
				c-0.1,0.1-0.1,0.2,0,0.3l2.9,1.7c0.1,0.1,0.3,0.1,0.5,0l3.3-1.9c0.1-0.1,0.1-0.2,0-0.3L164.2,308.9L164.2,308.9z M188.6,334.3
				c0.1-0.1,0.1-0.2,0-0.3l-2.9-1.8c-0.1-0.1-0.3-0.1-0.5,0l-3.3,1.9c-0.1,0.1-0.1,0.2,0,0.3l2.9,1.7c0.1,0.1,0.3,0.1,0.5,0
				L188.6,334.3z M197.8,328.3c-0.1-0.1-0.3-0.1-0.5,0l-3.3,1.9c-0.1,0.1-0.1,0.2,0,0.3l2.9,1.7c0.1,0.1,0.3,0.1,0.5,0l3.3-1.9
				c0.1-0.1,0.1-0.2,0-0.3L197.8,328.3L197.8,328.3z M194.4,332.1c0.1-0.1,0.1-0.2,0-0.3l-2.9-1.7c-0.1-0.1-0.3-0.1-0.5,0l-3.3,1.9
				c-0.1,0.1-0.1,0.2,0,0.3l2.9,1.7c0.1,0.1,0.3,0.1,0.5,0L194.4,332.1z M177.8,337.6c0.2,0.1,0.3,0.1,0.5,0l3.3-1.9
				c0.1-0.1,0.1-0.2,0-0.3l-2.9-1.7c-0.1-0.1-0.3-0.1-0.5,0l-3.3,1.9c-0.1,0.1-0.1,0.2,0,0.3L177.8,337.6L177.8,337.6z M185.8,338.1
				c0.1-0.1,0.1-0.2,0-0.3l-2.9-1.7c-0.1-0.1-0.3-0.1-0.5,0l-3.3,1.9c-0.1,0.1-0.1,0.2,0,0.3l2.9,1.7c0.1,0.1,0.3,0.1,0.5,0
				L185.8,338.1z M193.6,325.9c-0.1-0.1-0.3-0.1-0.5,0l-3.3,1.9c-0.1,0.1-0.1,0.2,0,0.3l2.9,1.7c0.1,0.1,0.3,0.1,0.5,0l3.3-1.9
				c0.1-0.1,0.1-0.2,0-0.3L193.6,325.9L193.6,325.9z M172.6,313.8c-0.2-0.1-0.3-0.1-0.5,0l-3.3,1.9c-0.1,0.1-0.1,0.2,0,0.3l2.9,1.7
				c0.1,0.1,0.3,0.1,0.5,0l3.4-2c0.1-0.1,0.1-0.2,0-0.3L172.6,313.8L172.6,313.8z M189.4,323.5c-0.1-0.1-0.3-0.1-0.5,0l-3.3,1.9
				c-0.1,0.1-0.1,0.2,0,0.3l2.9,1.7c0.1,0.1,0.3,0.1,0.5,0l3.3-1.9c0.1-0.1,0.1-0.2,0-0.3L189.4,323.5L189.4,323.5z M168.4,311.3
				c-0.1-0.1-0.3-0.1-0.5,0l-3.3,1.9c-0.1,0.1-0.1,0.2,0,0.3l2.9,1.7c0.1,0.1,0.3,0.1,0.5,0l3.3-1.9c0.1-0.1,0.1-0.2,0-0.3
				L168.4,311.3L168.4,311.3z M176.8,316.2c-0.1-0.1-0.3-0.1-0.5,0l-3.3,1.9c-0.1,0.1-0.1,0.2,0,0.3l2.9,1.7c0.1,0.1,0.3,0.1,0.5,0
				l3.3-1.9c0.1-0.1,0.1-0.2,0-0.3L176.8,316.2L176.8,316.2z M181,318.6c-0.1-0.1-0.3-0.1-0.5,0l-3.3,1.9c-0.1,0.1-0.1,0.2,0,0.3
				l2.9,1.7c0.1,0.1,0.3,0.1,0.5,0l3.3-1.9c0.1-0.1,0.1-0.2,0-0.3L181,318.6L181,318.6z M184.8,321l-3.3,1.9c-0.1,0.1-0.1,0.2,0,0.3
				l2.9,1.7c0.1,0.1,0.3,0.1,0.5,0l3.3-1.9c0.1-0.1,0.1-0.2,0-0.3l-2.9-1.7C185.1,320.9,184.9,321,184.8,321z M164.2,324l3.3-1.9
				c0.1-0.1,0.1-0.2,0-0.3l-2.9-1.7c-0.1-0.1-0.3-0.1-0.5,0l-3.3,1.9c-0.1,0.1-0.1,0.2,0,0.3l2.9,1.7
				C163.8,324.1,164,324.1,164.2,324z M126.7,287.3c-0.1-0.1-0.3-0.1-0.5,0l-3.3,1.9c-0.1,0.1-0.1,0.2,0,0.3l2.9,1.7
				c0.1,0.1,0.3,0.1,0.5,0l3.3-1.9c0.1-0.1,0.1-0.2,0-0.3L126.7,287.3L126.7,287.3z M131.8,290.2c-0.1-0.1-0.3-0.1-0.5,0l-3.3,1.9
				c-0.1,0.1-0.1,0.2,0,0.3l2.9,1.7c0.1,0.1,0.3,0.1,0.5,0l3.3-1.9c0.1-0.1,0.1-0.2,0-0.3L131.8,290.2L131.8,290.2z M122.5,284.8
				c-0.1-0.1-0.3-0.1-0.5,0l-3.3,1.9c-0.1,0.1-0.1,0.2,0,0.3l2.9,1.7c0.1,0.1,0.3,0.1,0.5,0l3.3-1.9c0.1-0.1,0.1-0.2,0-0.3
				L122.5,284.8L122.5,284.8z M144.8,307.3l3.3-1.9c0.1-0.1,0.1-0.2,0-0.3l-2.9-1.7c-0.1-0.1-0.3-0.1-0.5,0l-3.3,1.9
				c-0.1,0.1-0.1,0.2,0,0.3l2.9,1.7C144.4,307.4,144.6,307.4,144.8,307.3z M114.5,284.3c-0.1,0.1-0.1,0.2,0,0.3l2.9,1.7
				c0.1,0.1,0.3,0.1,0.5,0l3.3-1.9c0.1-0.1,0.1-0.2,0-0.3l-2.9-1.7c-0.1-0.1-0.3-0.1-0.5,0L114.5,284.3z M159.5,321.6
				c0.1,0.1,0.3,0.1,0.5,0l3.3-1.9c0.1-0.1,0.1-0.2,0-0.3l-2.9-1.7c-0.1-0.1-0.3-0.1-0.5,0l-3.3,1.9c-0.1,0.1-0.1,0.2,0,0.3
				L159.5,321.6L159.5,321.6z M107.9,291.8c0.1,0.1,0.3,0.1,0.5,0l3.3-1.9c0.1-0.1,0.1-0.2,0-0.3l-2.9-1.7c-0.1-0.1-0.3-0.1-0.5,0
				l-3.3,1.9c-0.1,0.1-0.1,0.2,0,0.3L107.9,291.8L107.9,291.8z M116.8,291.5c0.2,0.1,0.3,0.1,0.5,0l3.3-1.9c0.1-0.1,0.1-0.2,0-0.3
				l-2.9-1.7c-0.1-0.1-0.3-0.1-0.5,0l-3.3,1.9c-0.1,0.1-0.1,0.2,0,0.3L116.8,291.5L116.8,291.5z M109.8,287.1
				c-0.1,0.1-0.1,0.2,0,0.3l2.9,1.7c0.1,0.1,0.3,0.1,0.5,0l3.4-1.9c0.1-0.1,0.1-0.2,0-0.3l-2.9-1.7c-0.1-0.1-0.3-0.1-0.5,0
				L109.8,287.1z M112.2,284.6c0.1-0.1,0.1-0.2,0-0.3l-2.9-1.7c-0.1-0.1-0.3-0.1-0.5,0l-8.1,4.7c-0.1,0.1-0.1,0.2,0,0.3l2.9,1.7
				c0.1,0.1,0.3,0.1,0.5,0L112.2,284.6L112.2,284.6z M121.5,290l-3.3,1.9c-0.1,0.1-0.1,0.2,0,0.3l2.9,1.7c0.1,0.1,0.3,0.1,0.5,0
				l3.3-1.9c0.1-0.1,0.1-0.2,0-0.3L122,290C121.8,289.9,121.7,289.9,121.5,290z M153.6,308.3c-0.1-0.1-0.3-0.1-0.5,0l-3.3,1.9
				c-0.1,0.1-0.1,0.2,0,0.3l2.9,1.7c0.1,0.1,0.3,0.1,0.5,0l3.3-1.9c0.1-0.1,0.1-0.2,0-0.3L153.6,308.3L153.6,308.3z M115.9,292.3
				c0.1-0.1,0.1-0.2,0-0.3l-2.9-1.7c-0.1-0.1-0.3-0.1-0.5,0l-3.3,1.9c-0.1,0.1-0.1,0.2,0,0.3l2.9,1.7c0.1,0.1,0.3,0.1,0.5,0
				L115.9,292.3z M149.4,305.9c-0.1-0.1-0.3-0.1-0.5,0l-3.3,1.9c-0.1,0.1-0.1,0.2,0,0.3l2.9,1.7c0.1,0.1,0.3,0.1,0.5,0l3.3-1.9
				c0.1-0.1,0.1-0.2,0-0.3L149.4,305.9L149.4,305.9z M184.3,331.8c0.1-0.1,0.1-0.2,0-0.3l-2.9-1.7c-0.1-0.1-0.3-0.1-0.5,0l-3.3,1.9
				c-0.1,0.1-0.1,0.2,0,0.3l2.9,1.7c0.1,0.1,0.3,0.1,0.5,0L184.3,331.8z M187.3,327.8c-0.1-0.1-0.3-0.1-0.5,0l-3.3,1.9
				c-0.1,0.1-0.1,0.2,0,0.3l2.9,1.7c0.1,0.1,0.3,0.1,0.5,0l3.3-1.9c0.1-0.1,0.1-0.2,0-0.3L187.3,327.8L187.3,327.8z M176.3,331.3
				c0.1,0.1,0.3,0.1,0.4,0l3.3-1.9c0.1-0.1,0.1-0.2,0-0.3l-2.9-1.7c-0.1-0.1-0.3-0.1-0.5,0l-3.3,1.9c-0.1,0.1-0.1,0.2,0,0.3
				L176.3,331.3L176.3,331.3z M172.1,328.9c0.2,0.1,0.3,0.1,0.5,0l3.3-1.9c0.1-0.1,0.1-0.2,0-0.3L173,325c-0.1-0.1-0.3-0.1-0.5,0
				l-3.3,1.9c-0.1,0.1-0.1,0.2,0,0.3L172.1,328.9L172.1,328.9z M167.9,326.4c0.2,0.1,0.3,0,0.5,0l3.3-1.9c0.1-0.1,0.1-0.2,0-0.3
				l-2.9-1.7c-0.1-0.1-0.3-0.1-0.5,0l-3.3,1.9c-0.1,0.1-0.1,0.2,0,0.3L167.9,326.4L167.9,326.4z M182.7,325.3l-3.3,1.9
				c-0.1,0.1-0.1,0.2,0,0.3l2.9,1.7c0.1,0.1,0.3,0.1,0.5,0l3.3-1.9c0.1-0.1,0.1-0.2,0-0.3l-2.9-1.7
				C183,325.3,182.8,325.3,182.7,325.3z M178.9,322.9c-0.2-0.1-0.3-0.1-0.5,0l-3.3,1.9c-0.1,0.1-0.1,0.2,0,0.3l2.9,1.7
				c0.1,0.1,0.3,0.1,0.5,0l3.3-1.9c0.1-0.1,0.1-0.2,0-0.3L178.9,322.9L178.9,322.9z M161.6,313.1l-3.3,1.9c-0.1,0.1-0.1,0.2,0,0.3
				l2.9,1.7c0.1,0.1,0.3,0.1,0.5,0l3.4-1.9c0.1-0.1,0.1-0.2,0-0.3l-2.9-1.7C161.9,313.1,161.8,313.1,161.6,313.1z M166.3,315.6
				c-0.1-0.1-0.3-0.1-0.4,0l-3.3,1.9c-0.1,0.1-0.1,0.2,0,0.3l2.9,1.7c0.1,0.1,0.3,0.1,0.5,0l3.3-1.9c0.1-0.1,0.1-0.2,0-0.3
				L166.3,315.6L166.3,315.6z M157.9,310.7c-0.1-0.1-0.3-0.1-0.4,0l-3.3,1.9c-0.1,0.1-0.1,0.2,0,0.3l2.9,1.7c0.1,0.1,0.3,0.1,0.5,0
				l3.3-1.9c0.1-0.1,0.1-0.2,0-0.3L157.9,310.7L157.9,310.7z M174.7,320.5c-0.1-0.1-0.3-0.1-0.4,0l-3.3,1.9c-0.1,0.1-0.1,0.2,0,0.3
				l2.9,1.7c0.1,0.1,0.3,0.1,0.5,0l3.3-1.9c0.1-0.1,0.1-0.2,0-0.3L174.7,320.5L174.7,320.5z M170.5,318c-0.1-0.1-0.3-0.1-0.5,0
				l-3.3,2c-0.1,0.1-0.1,0.2,0,0.3l2.9,1.7c0.1,0.1,0.3,0.1,0.5,0l3.3-1.9c0.1-0.1,0.1-0.2,0-0.3L170.5,318L170.5,318z M173.6,335.2
				c0.1,0.1,0.3,0.1,0.5,0l3.3-1.9c0.1-0.1,0.1-0.2,0-0.3l-2.9-1.7c-0.1-0.1-0.3-0.1-0.5,0l-3.3,1.9c-0.1,0.1-0.1,0.2,0,0.3
				L173.6,335.2L173.6,335.2z M198.3,332.7c-0.2,0.1-0.2,0.2,0,0.3l2.9,1.7c0.1,0.1,0.3,0.1,0.5,0l3.3-1.9c0.1-0.1,0.1-0.2,0-0.3
				l-2.9-1.7c-0.1-0.1-0.3-0.1-0.5,0L198.3,332.7L198.3,332.7z M192,334.5c-0.1,0.1-0.1,0.2,0,0.3l4.4,2.6c0.1,0.1,0.3,0.1,0.5,0
				l3.3-1.9c0.1-0.1,0.1-0.2,0-0.3l-4.4-2.6c-0.1-0.1-0.3-0.1-0.5,0L192,334.5L192,334.5z M203.4,329.2l3.5,2c0.1,0.1,0.3,0.1,0.5,0
				l3.3-1.9c0.1-0.1,0.1-0.2,0-0.3l-3.5-2c-0.1-0.1-0.3-0.1-0.5,0l-3.3,1.9C203.2,329,203.2,329.2,203.4,329.2z M204,325.5
				c0.1-0.1,0.1-0.2,0-0.3l-2.9-1.7c-0.1-0.1-0.3-0.1-0.5,0l-3.3,1.9c-0.1,0.1-0.1,0.2,0,0.3l2.9,1.7c0.1,0.1,0.3,0.1,0.5,0
				L204,325.5z M186.1,336.9l5.5,3.2c0.1,0.1,0.3,0.1,0.5,0l3.3-1.9c0.1-0.1,0.1-0.2,0-0.3l-5.5-3.2c-0.1-0.1-0.3-0.1-0.5,0
				l-3.3,1.9C186,336.7,185.9,336.9,186.1,336.9z M183.3,340.5c-0.1,0.1-0.1,0.2,0,0.3l3.5,2c0.1,0.1,0.3,0.1,0.5,0l3.3-1.9
				c0.1-0.1,0.1-0.2,0-0.3l-3.5-2c-0.1-0.1-0.3-0.1-0.5,0L183.3,340.5L183.3,340.5z M172.7,307.4c0.1-0.1,0.1-0.2,0-0.3l-2.9-1.7
				c-0.1-0.1-0.3-0.1-0.5,0l-3.3,1.9c-0.1,0.1-0.1,0.2,0,0.3l2.9,1.7c0.1,0.1,0.3,0.1,0.5,0L172.7,307.4z M181.1,312.3
				c0.1-0.1,0.1-0.2,0-0.3l-2.9-1.7c-0.1-0.1-0.3-0.1-0.5,0l-3.3,1.9c-0.1,0.1-0.1,0.2,0,0.3l2.9,1.7c0.1,0.1,0.3,0.1,0.5,0
				L181.1,312.3z M199.8,323.1c0.1-0.1,0.1-0.2,0-0.3l-2.9-1.7c-0.1-0.1-0.3-0.1-0.5,0l-3.3,1.9c-0.1,0.1-0.1,0.2,0,0.3l2.9,1.7
				c0.1,0.1,0.3,0.1,0.5,0L199.8,323.1z M176.9,309.9c0.1-0.1,0.1-0.2,0-0.3l-2.9-1.7c-0.1-0.1-0.3-0.1-0.5,0l-3.3,1.9
				c-0.1,0.1-0.1,0.2,0,0.3l2.9,1.7c0.1,0.1,0.3,0.1,0.5,0L176.9,309.9z M185.3,314.7c0.1-0.1,0.1-0.2,0-0.3l-2.9-1.7
				c-0.1-0.1-0.3-0.1-0.5,0l-3.3,1.9c-0.1,0.1-0.1,0.2,0,0.3l2.9,1.7c0.1,0.1,0.3,0.1,0.5,0L185.3,314.7z M177.7,342.8
				c-0.1,0.1-0.1,0.2,0,0.3l4.4,2.6c0.1,0.1,0.3,0.1,0.5,0l3.3-1.9c0.1-0.1,0.1-0.2,0-0.3l-4.4-2.5c-0.1-0.1-0.3-0.1-0.5,0
				L177.7,342.8z M191.3,318.2c0.1-0.1,0.1-0.2,0-0.3l-2.9-1.7c-0.1-0.1-0.3-0.1-0.5,0l-3.3,1.9c-0.1,0.1-0.1,0.2,0,0.3l2.9,1.7
				c0.1,0.1,0.3,0.1,0.5,0L191.3,318.2z M195.5,320.6c0.1-0.1,0.1-0.2,0-0.3l-2.9-1.7c-0.1-0.1-0.3-0.1-0.5,0l-3.3,1.9
				c-0.1,0.1-0.1,0.2,0,0.3l2.9,1.7c0.1,0.1,0.3,0.1,0.5,0L195.5,320.6z M99.6,297.8c-0.1,0.1-0.1,0.2,0,0.3l7.1,4.1
				c0.1,0.1,0.3,0.1,0.5,0l3.3-1.9c0.1-0.1,0.1-0.2,0-0.3l-7.1-4.1c-0.1-0.1-0.3-0.1-0.5,0L99.6,297.8z M109,303.2
				c-0.1,0.1-0.1,0.2,0,0.3l2.9,1.7c0.1,0.1,0.3,0.1,0.5,0l3.3-1.9c0.1-0.1,0.1-0.2,0-0.3l-2.9-1.7c-0.1-0.1-0.3-0.1-0.5,0
				L109,303.2z M169.3,332.8c0.1,0.1,0.3,0.1,0.4,0l3.3-1.9c0.1-0.1,0.1-0.2,0-0.3l-2.9-1.7c-0.1-0.1-0.3-0.1-0.5,0l-3.3,1.9
				c-0.1,0.1-0.1,0.2,0,0.3L169.3,332.8L169.3,332.8z M117.4,308c-0.1,0.1-0.1,0.2,0,0.3l2.9,1.7c0.1,0.1,0.3,0.1,0.5,0l3.3-1.9
				c0.1-0.1,0.1-0.2,0-0.3l-3-1.6c-0.1-0.1-0.3-0.1-0.5,0L117.4,308z M95.4,295.3c-0.1,0.1-0.1,0.2,0,0.3l2.9,1.7
				c0.1,0.1,0.3,0.1,0.5,0l3.3-1.9c0.1-0.1,0.1-0.2,0-0.3l-2.9-1.6c-0.1-0.1-0.3-0.1-0.5,0L95.4,295.3z M91.3,292.9
				c-0.2,0.1-0.2,0.2-0.1,0.3l2.9,1.7c0.1,0.1,0.3,0.1,0.5,0l8.1-4.7c0.1-0.1,0.1-0.2,0-0.3l-2.9-1.7c-0.1-0.1-0.3-0.1-0.5,0
				L91.3,292.9L91.3,292.9z M133.1,317.1c-0.1,0.1-0.1,0.2,0,0.3l3.5,2c0.1,0.1,0.3,0.1,0.5,0l3.3-1.9c0.1-0.1,0.1-0.2,0-0.3l-3.5-2
				c-0.1-0.1-0.3-0.1-0.5,0L133.1,317.1z M122.5,310.9c-0.1,0.1-0.1,0.2,0,0.3l4.4,2.6c0.1,0.1,0.3,0.1,0.5,0l3.3-1.9
				c0.1-0.1,0.1-0.2,0-0.3l-4.4-2.6c-0.1-0.1-0.3-0.1-0.5,0L122.5,310.9z M142.9,322.7c-0.1,0.1-0.1,0.2,0,0.3l23.7,13.6
				c0.1,0.1,0.3,0.1,0.5,0l3.3-1.9c0.1-0.1,0.1-0.2,0-0.3l-23.7-13.7c-0.1-0.1-0.3-0.1-0.5,0L142.9,322.7z M167.9,337.1
				c-0.1,0.1-0.1,0.2,0,0.3l3.5,2c0.1,0.1,0.3,0.1,0.5,0l3.3-1.9c0.1-0.1,0.1-0.2,0-0.3l-3.5-2c-0.1-0.1-0.3-0.1-0.5,0L167.9,337.1z
				 M138,319.9c-0.1,0.1-0.1,0.2,0,0.3l3.5,2c0.1,0.1,0.3,0.1,0.5,0l3.3-1.9c0.1-0.1,0.1-0.2,0-0.3l-3.5-2c-0.1-0.1-0.3-0.1-0.5,0
				L138,319.9z M172.8,339.9c-0.1,0.1-0.1,0.2,0,0.3l3.5,2c0.1,0.1,0.3,0.1,0.5,0l3.3-1.9c0.1-0.1,0.1-0.2,0-0.3l-3.5-2
				c-0.1-0.1-0.3-0.1-0.5,0L172.8,339.9z M128.2,314.3c-0.1,0.1-0.1,0.2,0,0.3l3.5,2c0.1,0.1,0.3,0.1,0.5,0l3.3-1.9
				c0.1-0.1,0.1-0.2,0-0.3l-3.5-2c-0.1-0.1-0.3-0.1-0.5,0L128.2,314.3z M113.2,305.6c-0.1,0.1-0.1,0.2,0,0.3l2.9,1.7
				c0.1,0.1,0.3,0.1,0.5,0l3.3-1.9c0.1-0.1,0.1-0.2,0-0.3l-2.9-1.7c-0.1-0.1-0.3-0.1-0.5,0L113.2,305.6z M107.3,296.9
				c0.1,0.1,0.3,0.1,0.5,0l3.3-1.9c0.1-0.1,0.1-0.2,0-0.3l-2.9-1.7c-0.1-0.1-0.3-0.1-0.5,0l-3.3,1.9c-0.1,0.1-0.1,0.2,0,0.3
				L107.3,296.9L107.3,296.9z M126.6,296.9l3.3-1.9c0.1-0.1,0.1-0.2,0-0.3l-2.9-1.7c-0.1-0.1-0.3-0.1-0.5,0l-3.4,1.9
				c-0.1,0.1-0.1,0.2,0,0.3l2.9,1.7C126.3,296.9,126.4,296.9,126.6,296.9z M135.7,313.3c0.1,0.1,0.3,0.1,0.4,0l3.3-1.9
				c0.1-0.1,0.1-0.2,0-0.3l-8.4-4.9c-0.1-0.1-0.3-0.1-0.5,0l-3.3,1.9c-0.1,0.1-0.1,0.2,0,0.3L135.7,313.3L135.7,313.3z M115.3,297.4
				c0.1-0.1,0.1-0.2,0-0.3l-2.9-1.7c-0.1-0.1-0.3-0.1-0.5,0l-3.3,1.9c-0.1,0.1-0.1,0.2,0,0.3l2.9,1.7c0.1,0.1,0.3,0.1,0.5,0
				L115.3,297.4z M116.3,296.6c0.2,0.1,0.3,0.1,0.5,0l3.3-1.9c0.1-0.1,0.1-0.2,0-0.3l-2.9-1.6c-0.1-0.1-0.3-0.1-0.5,0l-3.3,1.9
				c-0.1,0.1-0.1,0.2,0,0.3L116.3,296.6L116.3,296.6z M139.9,315.7c0.1,0.1,0.3,0.1,0.4,0l3.3-1.9c0.1-0.1,0.1-0.2,0-0.3l-2.9-1.7
				c-0.1-0.1-0.3-0.1-0.5,0l-3.3,1.9c-0.1,0.1-0.1,0.2,0,0.3L139.9,315.7L139.9,315.7z M124.6,302.8c0.1-0.1,0.1-0.2,0-0.3l-2.9-1.7
				c-0.1-0.1-0.3-0.1-0.5,0l-3.3,1.9c-0.1,0.1-0.1,0.2,0,0.3l2.9,1.7c0.1,0.1,0.3,0.1,0.5,0L124.6,302.8z M161.4,327.9l3.3-1.9
				c0.1-0.1,0.1-0.2,0-0.3l-2.9-1.7c-0.1-0.1-0.3-0.1-0.5,0L158,326c-0.1,0.1-0.1,0.2,0,0.3l2.9,1.7
				C161.1,328,161.2,328,161.4,327.9z M157.2,325.5l3.3-1.9c0.1-0.1,0.1-0.2,0-0.3l-2.9-1.7c-0.1-0.1-0.3-0.1-0.5,0l-3.3,1.9
				c-0.1,0.1-0.1,0.2,0,0.3l2.9,1.7C156.9,325.5,157,325.5,157.2,325.5z M165.6,330.3l3.3-1.9c0.1-0.1,0.1-0.2,0-0.3l-2.9-1.7
				c-0.1-0.1-0.3-0.1-0.5,0l-3.3,1.9c-0.1,0.1-0.1,0.2,0,0.3l2.9,1.7C165.2,330.4,165.4,330.4,165.6,330.3z M148.3,320.6
				c0.1,0.1,0.3,0.1,0.5,0l3.3-1.9c0.1-0.1,0.1-0.2,0-0.3l-2.9-1.7c-0.1-0.1-0.3-0.1-0.5,0l-3.3,1.9c-0.1,0.1-0.1,0.2,0,0.3
				L148.3,320.6L148.3,320.6z M153,323l3.3-1.9c0.1-0.1,0.1-0.2,0-0.3l-2.9-1.7c-0.1-0.1-0.3-0.1-0.5,0l-3.3,1.9
				c-0.1,0.1-0.1,0.2,0,0.3l2.9,1.7C152.7,323.1,152.8,323.1,153,323z M144.1,318.2c0.1,0.1,0.3,0.1,0.5,0l3.3-1.9
				c0.1-0.1,0.1-0.2,0-0.3l-2.9-1.7c-0.1-0.1-0.3-0.1-0.5,0l-3.3,1.9c-0.1,0.1-0.1,0.2,0,0.3L144.1,318.2L144.1,318.2z M125.7,281.7
				c0.1-0.1,0.1-0.2,0-0.3l-2.9-1.7c-0.1-0.1-0.3-0.1-0.5,0l-0.9,0.5c-0.1,0.1-0.1,0.2,0,0.3l2.9,1.7c0.1,0.1,0.3,0.1,0.5,0
				L125.7,281.7z M148.9,293.6c0.1-0.1,0.1-0.2,0-0.3l-2.9-1.7c-0.1-0.1-0.3-0.1-0.5,0l-3.3,1.9c-0.1,0.1-0.1,0.2,0,0.3l2.9,1.7
				c0.1,0.1,0.3,0.1,0.5,0L148.9,293.6z M140.4,288.8c0.1-0.1,0.1-0.2,0-0.3l-2.9-1.7c-0.1-0.1-0.3-0.1-0.5,0l-3.3,1.9
				c-0.1,0.1-0.1,0.2,0,0.3l2.9,1.7c0.1,0.1,0.3,0.1,0.5,0L140.4,288.8z M154,296.6c0.1-0.1,0.1-0.2,0-0.3l-2.9-1.7
				c-0.1-0.1-0.3-0.1-0.5,0l-3.3,1.9c-0.1,0.1-0.1,0.2,0,0.3l2.9,1.7c0.1,0.1,0.3,0.1,0.5,0L154,296.6z M144.7,291.3
				c0.1-0.1,0.1-0.2,0-0.3l-2.9-1.7c-0.1-0.1-0.3-0.1-0.5,0l-3.3,1.9c-0.1,0.1-0.1,0.2,0,0.3l2.9,1.7c0.1,0.1,0.3,0.1,0.5,0
				L144.7,291.3z M162.4,301.5c0.1-0.1,0.1-0.2,0-0.3l-2.9-1.7c-0.1-0.1-0.3-0.1-0.5,0l-3.3,1.9c-0.1,0.1-0.1,0.2,0,0.3l2.9,1.7
				c0.1,0.1,0.3,0.1,0.5,0L162.4,301.5z M158.2,299.1c0.1-0.1,0.1-0.2,0-0.3l-2.9-1.7c-0.1-0.1-0.3-0.1-0.5,0l-3.3,1.9
				c-0.1,0.1-0.1,0.2,0,0.3l2.9,1.7c0.1,0.1,0.3,0.1,0.5,0L158.2,299.1z M134.1,286.6c0.1-0.1,0.1-0.2,0-0.3l-2.9-1.7
				c-0.1-0.1-0.3-0.1-0.5,0l-0.9,0.5c-0.1,0.1-0.1,0.2,0,0.3l2.9,1.7c0.1,0.1,0.3,0.1,0.5,0L134.1,286.6z M121.5,279.3
				c0.1-0.1,0.1-0.2,0-0.3l-2.9-1.6c-0.1-0.1-0.3-0.1-0.5,0l-0.9,0.5c-0.1,0.1-0.1,0.2,0,0.3l2.9,1.7c0.1,0.1,0.3,0.1,0.5,0
				L121.5,279.3z M117,281.9c0.1-0.1,0.1-0.2,0-0.3l-2.9-1.7c-0.1-0.1-0.3-0.1-0.5,0l-3.4,1.9c-0.1,0.1-0.1,0.2,0,0.3l2.9,1.7
				c0.1,0.1,0.3,0.1,0.5,0L117,281.9z M103.6,294.5l3.3-1.9c0.1-0.1,0.1-0.2,0-0.3l-2.9-1.7c-0.1-0.1-0.3-0.1-0.5,0l-3.3,1.9
				c-0.1,0.1-0.1,0.2,0,0.3l2.9,1.7C103.2,294.6,103.4,294.6,103.6,294.5z M129.9,284.1c0.1-0.1,0.1-0.2,0-0.3l-2.9-1.7
				c-0.1-0.1-0.3-0.1-0.5,0l-0.9,0.5c-0.1,0.1-0.1,0.2,0,0.3l2.9,1.7c0.1,0.1,0.3,0.1,0.5,0L129.9,284.1z M166.7,303.9
				c0.1-0.1,0.1-0.2,0-0.3l-2.9-1.7c-0.1-0.1-0.3-0.1-0.5,0l-3.4,1.9c-0.1,0.1-0.1,0.2,0,0.3l2.9,1.7c0.1,0.1,0.3,0.1,0.5,0
				L166.7,303.9z"/>
			<path class="st7" d="M130.8,299.2l3.3-1.9c0.1-0.1,0.1-0.2,0-0.3l-2.8-1.6c-0.1-0.1-0.3-0.1-0.5,0l-3.3,1.9
				c-0.1,0.1-0.1,0.2,0,0.3l2.9,1.7C130.5,299.3,130.6,299.3,130.8,299.2z M135.6,292.6l-3.3,1.9c-0.1,0.1-0.1,0.2,0,0.3l2.9,1.7
				c0.1,0.1,0.3,0.1,0.5,0l3.3-1.9c0.1-0.1,0.1-0.2,0-0.3l-2.9-1.7C135.9,292.6,135.7,292.6,135.6,292.6z M144.9,298l-3.3,1.9
				c-0.1,0.1-0.1,0.2,0,0.3l4.9,2.8c0.1,0.1,0.3,0.1,0.5,0l3.3-1.9c0.1-0.1,0.1-0.2,0-0.3l-4.9-2.8C145.2,297.9,145,297.9,144.9,298
				z M140.2,295.1c-0.1-0.1-0.3-0.1-0.5,0l-3.3,1.9c-0.1,0.1-0.1,0.2,0,0.3l2.9,1.7c0.1,0.1,0.3,0.1,0.5,0l3.3-1.9
				c0.1-0.1,0.1-0.2,0-0.3L140.2,295.1L140.2,295.1z M151.5,301.6c-0.1-0.1-0.3-0.1-0.4,0l-3.4,1.9c-0.1,0.1-0.1,0.2,0,0.3l2.9,1.7
				c0.1,0.1,0.3,0.1,0.5,0l3.3-1.9c0.1-0.1,0.1-0.2,0-0.3L151.5,301.6L151.5,301.6z M155.3,304l-3.3,1.9c-0.1,0.1-0.1,0.2,0,0.3
				l2.9,1.7c0.1,0.1,0.3,0.1,0.5,0l3.3-1.9c0.1-0.1,0.1-0.2,0-0.3l-2.9-1.7C155.6,303.9,155.4,303.9,155.3,304z M142.6,311.9
				c0.1,0.1,0.3,0.1,0.5,0l3.3-1.9c0.1-0.1,0.1-0.2,0-0.3l-2.9-1.7c-0.1-0.1-0.3-0.1-0.5,0l-3.3,1.9c-0.1,0.1-0.1,0.2,0,0.3
				L142.6,311.9L142.6,311.9z M146.9,314.3c0.2,0.1,0.3,0.1,0.5,0l3.3-1.9c0.1-0.1,0.1-0.2,0-0.3l-2.9-1.7c-0.1-0.1-0.3-0.1-0.5,0
				l-3.3,1.9c-0.1,0.1-0.1,0.2,0,0.3L146.9,314.3L146.9,314.3z M151.6,316.7l3.3-1.9c0.1-0.1,0.1-0.2,0-0.3l-2.9-1.7
				c-0.1-0.1-0.3-0.1-0.5,0l-3.3,1.9c-0.1,0.1-0.1,0.2,0,0.3l2.9,1.7C151.2,316.8,151.4,316.8,151.6,316.7z M155.3,319.1
				c0.2,0.1,0.3,0.1,0.5,0l3.3-1.9c0.1-0.1,0.1-0.2,0-0.3l-2.9-1.7c-0.1-0.1-0.3-0.1-0.5,0l-3.3,1.9c-0.1,0.1-0.1,0.2,0,0.3
				L155.3,319.1L155.3,319.1z M134.6,301.7c0.2,0.1,0.3,0.1,0.5,0l3.3-1.9c0.1-0.1,0.1-0.2,0-0.3l-2.9-1.7c-0.1-0.1-0.3-0.1-0.5,0
				l-3.3,1.9c-0.1,0.1-0.1,0.2,0,0.3L134.6,301.7L134.6,301.7z M138.4,309.4c0.2,0.1,0.3,0.1,0.5,0l3.3-1.9c0.1-0.1,0.1-0.2,0-0.3
				l-2.7-1.5c-0.1-0.1-0.1-0.2,0-0.3l4.3-2.5c0.1-0.1,0.1-0.2,0-0.3l-3.3-1.9c-0.1-0.1-0.3-0.1-0.5,0l-8.1,4.7
				c-0.1,0.1-0.1,0.2,0,0.3L138.4,309.4L138.4,309.4z M160,306.5c-0.1-0.1-0.3-0.1-0.4,0l-3.3,1.9c-0.1,0.1-0.1,0.2,0,0.3l2.9,1.7
				c0.1,0.1,0.3,0.1,0.5,0l3.3-1.9c0.1-0.1,0.1-0.2,0-0.3L160,306.5L160,306.5z M164.2,308.9c-0.1-0.1-0.3-0.1-0.4,0l-3.3,1.9
				c-0.1,0.1-0.1,0.2,0,0.3l2.9,1.7c0.1,0.1,0.3,0.1,0.5,0l3.3-1.9c0.1-0.1,0.1-0.2,0-0.3L164.2,308.9L164.2,308.9z M188.6,334.3
				c0.1-0.1,0.1-0.2,0-0.3l-2.9-1.8c-0.1-0.1-0.3-0.1-0.5,0l-3.3,1.9c-0.1,0.1-0.1,0.2,0,0.3l2.9,1.7c0.1,0.1,0.3,0.1,0.5,0
				L188.6,334.3z M197.8,328.3c-0.1-0.1-0.3-0.1-0.5,0l-3.3,1.9c-0.1,0.1-0.1,0.2,0,0.3l2.9,1.7c0.1,0.1,0.3,0.1,0.5,0l3.3-1.9
				c0.1-0.1,0.1-0.2,0-0.3L197.8,328.3L197.8,328.3z M194.4,332.1c0.1-0.1,0.1-0.2,0-0.3l-2.9-1.7c-0.1-0.1-0.3-0.1-0.5,0l-3.3,1.9
				c-0.1,0.1-0.1,0.2,0,0.3l2.9,1.7c0.1,0.1,0.3,0.1,0.5,0L194.4,332.1z M177.8,337.6c0.2,0.1,0.3,0.1,0.5,0l3.3-1.9
				c0.1-0.1,0.1-0.2,0-0.3l-2.9-1.7c-0.1-0.1-0.3-0.1-0.5,0l-3.3,1.9c-0.1,0.1-0.1,0.2,0,0.3L177.8,337.6L177.8,337.6z M185.8,338.1
				c0.1-0.1,0.1-0.2,0-0.3l-2.9-1.7c-0.1-0.1-0.3-0.1-0.5,0l-3.3,1.9c-0.1,0.1-0.1,0.2,0,0.3l2.9,1.7c0.1,0.1,0.3,0.1,0.5,0
				L185.8,338.1z M193.6,325.9c-0.1-0.1-0.3-0.1-0.5,0l-3.3,1.9c-0.1,0.1-0.1,0.2,0,0.3l2.9,1.7c0.1,0.1,0.3,0.1,0.5,0l3.3-1.9
				c0.1-0.1,0.1-0.2,0-0.3L193.6,325.9L193.6,325.9z M172.6,313.8c-0.2-0.1-0.3-0.1-0.5,0l-3.3,1.9c-0.1,0.1-0.1,0.2,0,0.3l2.9,1.7
				c0.1,0.1,0.3,0.1,0.5,0l3.4-2c0.1-0.1,0.1-0.2,0-0.3L172.6,313.8L172.6,313.8z M189.4,323.5c-0.1-0.1-0.3-0.1-0.5,0l-3.3,1.9
				c-0.1,0.1-0.1,0.2,0,0.3l2.9,1.7c0.1,0.1,0.3,0.1,0.5,0l3.3-1.9c0.1-0.1,0.1-0.2,0-0.3L189.4,323.5L189.4,323.5z M168.4,311.3
				c-0.1-0.1-0.3-0.1-0.5,0l-3.3,1.9c-0.1,0.1-0.1,0.2,0,0.3l2.9,1.7c0.1,0.1,0.3,0.1,0.5,0l3.3-1.9c0.1-0.1,0.1-0.2,0-0.3
				L168.4,311.3L168.4,311.3z M176.8,316.2c-0.1-0.1-0.3-0.1-0.5,0l-3.3,1.9c-0.1,0.1-0.1,0.2,0,0.3l2.9,1.7c0.1,0.1,0.3,0.1,0.5,0
				l3.3-1.9c0.1-0.1,0.1-0.2,0-0.3L176.8,316.2L176.8,316.2z M181,318.6c-0.1-0.1-0.3-0.1-0.5,0l-3.3,1.9c-0.1,0.1-0.1,0.2,0,0.3
				l2.9,1.7c0.1,0.1,0.3,0.1,0.5,0l3.3-1.9c0.1-0.1,0.1-0.2,0-0.3L181,318.6L181,318.6z M184.8,321l-3.3,1.9c-0.1,0.1-0.1,0.2,0,0.3
				l2.9,1.7c0.1,0.1,0.3,0.1,0.5,0l3.3-1.9c0.1-0.1,0.1-0.2,0-0.3l-2.9-1.7C185.1,320.9,184.9,321,184.8,321z M164.2,324l3.3-1.9
				c0.1-0.1,0.1-0.2,0-0.3l-2.9-1.7c-0.1-0.1-0.3-0.1-0.5,0l-3.3,1.9c-0.1,0.1-0.1,0.2,0,0.3l2.9,1.7
				C163.8,324.1,164,324.1,164.2,324z M126.7,287.3c-0.1-0.1-0.3-0.1-0.5,0l-3.3,1.9c-0.1,0.1-0.1,0.2,0,0.3l2.9,1.7
				c0.1,0.1,0.3,0.1,0.5,0l3.3-1.9c0.1-0.1,0.1-0.2,0-0.3L126.7,287.3L126.7,287.3z M131.8,290.2c-0.1-0.1-0.3-0.1-0.5,0l-3.3,1.9
				c-0.1,0.1-0.1,0.2,0,0.3l2.9,1.7c0.1,0.1,0.3,0.1,0.5,0l3.3-1.9c0.1-0.1,0.1-0.2,0-0.3L131.8,290.2L131.8,290.2z M122.5,284.8
				c-0.1-0.1-0.3-0.1-0.5,0l-3.3,1.9c-0.1,0.1-0.1,0.2,0,0.3l2.9,1.7c0.1,0.1,0.3,0.1,0.5,0l3.3-1.9c0.1-0.1,0.1-0.2,0-0.3
				L122.5,284.8L122.5,284.8z M144.8,307.3l3.3-1.9c0.1-0.1,0.1-0.2,0-0.3l-2.9-1.7c-0.1-0.1-0.3-0.1-0.5,0l-3.3,1.9
				c-0.1,0.1-0.1,0.2,0,0.3l2.9,1.7C144.4,307.4,144.6,307.4,144.8,307.3z M114.5,284.3c-0.1,0.1-0.1,0.2,0,0.3l2.9,1.7
				c0.1,0.1,0.3,0.1,0.5,0l3.3-1.9c0.1-0.1,0.1-0.2,0-0.3l-2.9-1.7c-0.1-0.1-0.3-0.1-0.5,0L114.5,284.3z M159.5,321.6
				c0.1,0.1,0.3,0.1,0.5,0l3.3-1.9c0.1-0.1,0.1-0.2,0-0.3l-2.9-1.7c-0.1-0.1-0.3-0.1-0.5,0l-3.3,1.9c-0.1,0.1-0.1,0.2,0,0.3
				L159.5,321.6L159.5,321.6z M107.9,291.8c0.1,0.1,0.3,0.1,0.5,0l3.3-1.9c0.1-0.1,0.1-0.2,0-0.3l-2.9-1.7c-0.1-0.1-0.3-0.1-0.5,0
				l-3.3,1.9c-0.1,0.1-0.1,0.2,0,0.3L107.9,291.8L107.9,291.8z M116.8,291.5c0.2,0.1,0.3,0.1,0.5,0l3.3-1.9c0.1-0.1,0.1-0.2,0-0.3
				l-2.9-1.7c-0.1-0.1-0.3-0.1-0.5,0l-3.3,1.9c-0.1,0.1-0.1,0.2,0,0.3L116.8,291.5L116.8,291.5z M109.8,287.1
				c-0.1,0.1-0.1,0.2,0,0.3l2.9,1.7c0.1,0.1,0.3,0.1,0.5,0l3.4-1.9c0.1-0.1,0.1-0.2,0-0.3l-2.9-1.7c-0.1-0.1-0.3-0.1-0.5,0
				L109.8,287.1z M112.2,284.6c0.1-0.1,0.1-0.2,0-0.3l-2.9-1.7c-0.1-0.1-0.3-0.1-0.5,0l-8.1,4.7c-0.1,0.1-0.1,0.2,0,0.3l2.9,1.7
				c0.1,0.1,0.3,0.1,0.5,0L112.2,284.6L112.2,284.6z M121.5,290l-3.3,1.9c-0.1,0.1-0.1,0.2,0,0.3l2.9,1.7c0.1,0.1,0.3,0.1,0.5,0
				l3.3-1.9c0.1-0.1,0.1-0.2,0-0.3L122,290C121.8,289.9,121.7,289.9,121.5,290z M153.6,308.3c-0.1-0.1-0.3-0.1-0.5,0l-3.3,1.9
				c-0.1,0.1-0.1,0.2,0,0.3l2.9,1.7c0.1,0.1,0.3,0.1,0.5,0l3.3-1.9c0.1-0.1,0.1-0.2,0-0.3L153.6,308.3L153.6,308.3z M115.9,292.3
				c0.1-0.1,0.1-0.2,0-0.3l-2.9-1.7c-0.1-0.1-0.3-0.1-0.5,0l-3.3,1.9c-0.1,0.1-0.1,0.2,0,0.3l2.9,1.7c0.1,0.1,0.3,0.1,0.5,0
				L115.9,292.3z M149.4,305.9c-0.1-0.1-0.3-0.1-0.5,0l-3.3,1.9c-0.1,0.1-0.1,0.2,0,0.3l2.9,1.7c0.1,0.1,0.3,0.1,0.5,0l3.3-1.9
				c0.1-0.1,0.1-0.2,0-0.3L149.4,305.9L149.4,305.9z M184.3,331.8c0.1-0.1,0.1-0.2,0-0.3l-2.9-1.7c-0.1-0.1-0.3-0.1-0.5,0l-3.3,1.9
				c-0.1,0.1-0.1,0.2,0,0.3l2.9,1.7c0.1,0.1,0.3,0.1,0.5,0L184.3,331.8z M187.3,327.8c-0.1-0.1-0.3-0.1-0.5,0l-3.3,1.9
				c-0.1,0.1-0.1,0.2,0,0.3l2.9,1.7c0.1,0.1,0.3,0.1,0.5,0l3.3-1.9c0.1-0.1,0.1-0.2,0-0.3L187.3,327.8L187.3,327.8z M176.3,331.3
				c0.1,0.1,0.3,0.1,0.4,0l3.3-1.9c0.1-0.1,0.1-0.2,0-0.3l-2.9-1.7c-0.1-0.1-0.3-0.1-0.5,0l-3.3,1.9c-0.1,0.1-0.1,0.2,0,0.3
				L176.3,331.3L176.3,331.3z M172.1,328.9c0.2,0.1,0.3,0.1,0.5,0l3.3-1.9c0.1-0.1,0.1-0.2,0-0.3L173,325c-0.1-0.1-0.3-0.1-0.5,0
				l-3.3,1.9c-0.1,0.1-0.1,0.2,0,0.3L172.1,328.9L172.1,328.9z M167.9,326.4c0.2,0.1,0.3,0,0.5,0l3.3-1.9c0.1-0.1,0.1-0.2,0-0.3
				l-2.9-1.7c-0.1-0.1-0.3-0.1-0.5,0l-3.3,1.9c-0.1,0.1-0.1,0.2,0,0.3L167.9,326.4L167.9,326.4z M182.7,325.3l-3.3,1.9
				c-0.1,0.1-0.1,0.2,0,0.3l2.9,1.7c0.1,0.1,0.3,0.1,0.5,0l3.3-1.9c0.1-0.1,0.1-0.2,0-0.3l-2.9-1.7
				C183,325.3,182.8,325.3,182.7,325.3z M178.9,322.9c-0.2-0.1-0.3-0.1-0.5,0l-3.3,1.9c-0.1,0.1-0.1,0.2,0,0.3l2.9,1.7
				c0.1,0.1,0.3,0.1,0.5,0l3.3-1.9c0.1-0.1,0.1-0.2,0-0.3L178.9,322.9L178.9,322.9z M161.6,313.1l-3.3,1.9c-0.1,0.1-0.1,0.2,0,0.3
				l2.9,1.7c0.1,0.1,0.3,0.1,0.5,0l3.4-1.9c0.1-0.1,0.1-0.2,0-0.3l-2.9-1.7C161.9,313.1,161.8,313.1,161.6,313.1z M166.3,315.6
				c-0.1-0.1-0.3-0.1-0.4,0l-3.3,1.9c-0.1,0.1-0.1,0.2,0,0.3l2.9,1.7c0.1,0.1,0.3,0.1,0.5,0l3.3-1.9c0.1-0.1,0.1-0.2,0-0.3
				L166.3,315.6L166.3,315.6z M157.9,310.7c-0.1-0.1-0.3-0.1-0.4,0l-3.3,1.9c-0.1,0.1-0.1,0.2,0,0.3l2.9,1.7c0.1,0.1,0.3,0.1,0.5,0
				l3.3-1.9c0.1-0.1,0.1-0.2,0-0.3L157.9,310.7L157.9,310.7z M174.7,320.5c-0.1-0.1-0.3-0.1-0.4,0l-3.3,1.9c-0.1,0.1-0.1,0.2,0,0.3
				l2.9,1.7c0.1,0.1,0.3,0.1,0.5,0l3.3-1.9c0.1-0.1,0.1-0.2,0-0.3L174.7,320.5L174.7,320.5z M170.5,318c-0.1-0.1-0.3-0.1-0.5,0
				l-3.3,2c-0.1,0.1-0.1,0.2,0,0.3l2.9,1.7c0.1,0.1,0.3,0.1,0.5,0l3.3-1.9c0.1-0.1,0.1-0.2,0-0.3L170.5,318L170.5,318z M173.6,335.2
				c0.1,0.1,0.3,0.1,0.5,0l3.3-1.9c0.1-0.1,0.1-0.2,0-0.3l-2.9-1.7c-0.1-0.1-0.3-0.1-0.5,0l-3.3,1.9c-0.1,0.1-0.1,0.2,0,0.3
				L173.6,335.2L173.6,335.2z M198.3,332.7c-0.2,0.1-0.2,0.2,0,0.3l2.9,1.7c0.1,0.1,0.3,0.1,0.5,0l3.3-1.9c0.1-0.1,0.1-0.2,0-0.3
				l-2.9-1.7c-0.1-0.1-0.3-0.1-0.5,0L198.3,332.7L198.3,332.7z M192,334.5c-0.1,0.1-0.1,0.2,0,0.3l4.4,2.6c0.1,0.1,0.3,0.1,0.5,0
				l3.3-1.9c0.1-0.1,0.1-0.2,0-0.3l-4.4-2.6c-0.1-0.1-0.3-0.1-0.5,0L192,334.5L192,334.5z M203.4,329.2l3.5,2c0.1,0.1,0.3,0.1,0.5,0
				l3.3-1.9c0.1-0.1,0.1-0.2,0-0.3l-3.5-2c-0.1-0.1-0.3-0.1-0.5,0l-3.3,1.9C203.2,329,203.2,329.2,203.4,329.2z M204,325.5
				c0.1-0.1,0.1-0.2,0-0.3l-2.9-1.7c-0.1-0.1-0.3-0.1-0.5,0l-3.3,1.9c-0.1,0.1-0.1,0.2,0,0.3l2.9,1.7c0.1,0.1,0.3,0.1,0.5,0
				L204,325.5z M186.1,336.9l5.5,3.2c0.1,0.1,0.3,0.1,0.5,0l3.3-1.9c0.1-0.1,0.1-0.2,0-0.3l-5.5-3.2c-0.1-0.1-0.3-0.1-0.5,0
				l-3.3,1.9C186,336.7,185.9,336.9,186.1,336.9z M183.3,340.5c-0.1,0.1-0.1,0.2,0,0.3l3.5,2c0.1,0.1,0.3,0.1,0.5,0l3.3-1.9
				c0.1-0.1,0.1-0.2,0-0.3l-3.5-2c-0.1-0.1-0.3-0.1-0.5,0L183.3,340.5L183.3,340.5z M172.7,307.4c0.1-0.1,0.1-0.2,0-0.3l-2.9-1.7
				c-0.1-0.1-0.3-0.1-0.5,0l-3.3,1.9c-0.1,0.1-0.1,0.2,0,0.3l2.9,1.7c0.1,0.1,0.3,0.1,0.5,0L172.7,307.4z M181.1,312.3
				c0.1-0.1,0.1-0.2,0-0.3l-2.9-1.7c-0.1-0.1-0.3-0.1-0.5,0l-3.3,1.9c-0.1,0.1-0.1,0.2,0,0.3l2.9,1.7c0.1,0.1,0.3,0.1,0.5,0
				L181.1,312.3z M199.8,323.1c0.1-0.1,0.1-0.2,0-0.3l-2.9-1.7c-0.1-0.1-0.3-0.1-0.5,0l-3.3,1.9c-0.1,0.1-0.1,0.2,0,0.3l2.9,1.7
				c0.1,0.1,0.3,0.1,0.5,0L199.8,323.1z M176.9,309.9c0.1-0.1,0.1-0.2,0-0.3l-2.9-1.7c-0.1-0.1-0.3-0.1-0.5,0l-3.3,1.9
				c-0.1,0.1-0.1,0.2,0,0.3l2.9,1.7c0.1,0.1,0.3,0.1,0.5,0L176.9,309.9z M185.3,314.7c0.1-0.1,0.1-0.2,0-0.3l-2.9-1.7
				c-0.1-0.1-0.3-0.1-0.5,0l-3.3,1.9c-0.1,0.1-0.1,0.2,0,0.3l2.9,1.7c0.1,0.1,0.3,0.1,0.5,0L185.3,314.7z M177.7,342.8
				c-0.1,0.1-0.1,0.2,0,0.3l4.4,2.6c0.1,0.1,0.3,0.1,0.5,0l3.3-1.9c0.1-0.1,0.1-0.2,0-0.3l-4.4-2.5c-0.1-0.1-0.3-0.1-0.5,0
				L177.7,342.8z M191.3,318.2c0.1-0.1,0.1-0.2,0-0.3l-2.9-1.7c-0.1-0.1-0.3-0.1-0.5,0l-3.3,1.9c-0.1,0.1-0.1,0.2,0,0.3l2.9,1.7
				c0.1,0.1,0.3,0.1,0.5,0L191.3,318.2z M195.5,320.6c0.1-0.1,0.1-0.2,0-0.3l-2.9-1.7c-0.1-0.1-0.3-0.1-0.5,0l-3.3,1.9
				c-0.1,0.1-0.1,0.2,0,0.3l2.9,1.7c0.1,0.1,0.3,0.1,0.5,0L195.5,320.6z M99.6,297.8c-0.1,0.1-0.1,0.2,0,0.3l7.1,4.1
				c0.1,0.1,0.3,0.1,0.5,0l3.3-1.9c0.1-0.1,0.1-0.2,0-0.3l-7.1-4.1c-0.1-0.1-0.3-0.1-0.5,0L99.6,297.8z M109,303.2
				c-0.1,0.1-0.1,0.2,0,0.3l2.9,1.7c0.1,0.1,0.3,0.1,0.5,0l3.3-1.9c0.1-0.1,0.1-0.2,0-0.3l-2.9-1.7c-0.1-0.1-0.3-0.1-0.5,0
				L109,303.2z M169.3,332.8c0.1,0.1,0.3,0.1,0.4,0l3.3-1.9c0.1-0.1,0.1-0.2,0-0.3l-2.9-1.7c-0.1-0.1-0.3-0.1-0.5,0l-3.3,1.9
				c-0.1,0.1-0.1,0.2,0,0.3L169.3,332.8L169.3,332.8z M117.4,308c-0.1,0.1-0.1,0.2,0,0.3l2.9,1.7c0.1,0.1,0.3,0.1,0.5,0l3.3-1.9
				c0.1-0.1,0.1-0.2,0-0.3l-3-1.6c-0.1-0.1-0.3-0.1-0.5,0L117.4,308z M95.4,295.3c-0.1,0.1-0.1,0.2,0,0.3l2.9,1.7
				c0.1,0.1,0.3,0.1,0.5,0l3.3-1.9c0.1-0.1,0.1-0.2,0-0.3l-2.9-1.6c-0.1-0.1-0.3-0.1-0.5,0L95.4,295.3z M91.3,292.9
				c-0.2,0.1-0.2,0.2-0.1,0.3l2.9,1.7c0.1,0.1,0.3,0.1,0.5,0l8.1-4.7c0.1-0.1,0.1-0.2,0-0.3l-2.9-1.7c-0.1-0.1-0.3-0.1-0.5,0
				L91.3,292.9L91.3,292.9z M133.1,317.1c-0.1,0.1-0.1,0.2,0,0.3l3.5,2c0.1,0.1,0.3,0.1,0.5,0l3.3-1.9c0.1-0.1,0.1-0.2,0-0.3l-3.5-2
				c-0.1-0.1-0.3-0.1-0.5,0L133.1,317.1z M122.5,310.9c-0.1,0.1-0.1,0.2,0,0.3l4.4,2.6c0.1,0.1,0.3,0.1,0.5,0l3.3-1.9
				c0.1-0.1,0.1-0.2,0-0.3l-4.4-2.6c-0.1-0.1-0.3-0.1-0.5,0L122.5,310.9z M142.9,322.7c-0.1,0.1-0.1,0.2,0,0.3l23.7,13.6
				c0.1,0.1,0.3,0.1,0.5,0l3.3-1.9c0.1-0.1,0.1-0.2,0-0.3l-23.7-13.7c-0.1-0.1-0.3-0.1-0.5,0L142.9,322.7z M167.9,337.1
				c-0.1,0.1-0.1,0.2,0,0.3l3.5,2c0.1,0.1,0.3,0.1,0.5,0l3.3-1.9c0.1-0.1,0.1-0.2,0-0.3l-3.5-2c-0.1-0.1-0.3-0.1-0.5,0L167.9,337.1z
				 M138,319.9c-0.1,0.1-0.1,0.2,0,0.3l3.5,2c0.1,0.1,0.3,0.1,0.5,0l3.3-1.9c0.1-0.1,0.1-0.2,0-0.3l-3.5-2c-0.1-0.1-0.3-0.1-0.5,0
				L138,319.9z M172.8,339.9c-0.1,0.1-0.1,0.2,0,0.3l3.5,2c0.1,0.1,0.3,0.1,0.5,0l3.3-1.9c0.1-0.1,0.1-0.2,0-0.3l-3.5-2
				c-0.1-0.1-0.3-0.1-0.5,0L172.8,339.9z M128.2,314.3c-0.1,0.1-0.1,0.2,0,0.3l3.5,2c0.1,0.1,0.3,0.1,0.5,0l3.3-1.9
				c0.1-0.1,0.1-0.2,0-0.3l-3.5-2c-0.1-0.1-0.3-0.1-0.5,0L128.2,314.3z M113.2,305.6c-0.1,0.1-0.1,0.2,0,0.3l2.9,1.7
				c0.1,0.1,0.3,0.1,0.5,0l3.3-1.9c0.1-0.1,0.1-0.2,0-0.3l-2.9-1.7c-0.1-0.1-0.3-0.1-0.5,0L113.2,305.6z M107.3,296.9
				c0.1,0.1,0.3,0.1,0.5,0l3.3-1.9c0.1-0.1,0.1-0.2,0-0.3l-2.9-1.7c-0.1-0.1-0.3-0.1-0.5,0l-3.3,1.9c-0.1,0.1-0.1,0.2,0,0.3
				L107.3,296.9L107.3,296.9z M126.6,296.9l3.3-1.9c0.1-0.1,0.1-0.2,0-0.3l-2.9-1.7c-0.1-0.1-0.3-0.1-0.5,0l-3.4,1.9
				c-0.1,0.1-0.1,0.2,0,0.3l2.9,1.7C126.3,296.9,126.4,296.9,126.6,296.9z M135.7,313.3c0.1,0.1,0.3,0.1,0.4,0l3.3-1.9
				c0.1-0.1,0.1-0.2,0-0.3l-8.4-4.9c-0.1-0.1-0.3-0.1-0.5,0l-3.3,1.9c-0.1,0.1-0.1,0.2,0,0.3L135.7,313.3L135.7,313.3z M115.3,297.4
				c0.1-0.1,0.1-0.2,0-0.3l-2.9-1.7c-0.1-0.1-0.3-0.1-0.5,0l-3.3,1.9c-0.1,0.1-0.1,0.2,0,0.3l2.9,1.7c0.1,0.1,0.3,0.1,0.5,0
				L115.3,297.4z M116.3,296.6c0.2,0.1,0.3,0.1,0.5,0l3.3-1.9c0.1-0.1,0.1-0.2,0-0.3l-2.9-1.6c-0.1-0.1-0.3-0.1-0.5,0l-3.3,1.9
				c-0.1,0.1-0.1,0.2,0,0.3L116.3,296.6L116.3,296.6z M139.9,315.7c0.1,0.1,0.3,0.1,0.4,0l3.3-1.9c0.1-0.1,0.1-0.2,0-0.3l-2.9-1.7
				c-0.1-0.1-0.3-0.1-0.5,0l-3.3,1.9c-0.1,0.1-0.1,0.2,0,0.3L139.9,315.7L139.9,315.7z M124.6,302.8c0.1-0.1,0.1-0.2,0-0.3l-2.9-1.7
				c-0.1-0.1-0.3-0.1-0.5,0l-3.3,1.9c-0.1,0.1-0.1,0.2,0,0.3l2.9,1.7c0.1,0.1,0.3,0.1,0.5,0L124.6,302.8z M161.4,327.9l3.3-1.9
				c0.1-0.1,0.1-0.2,0-0.3l-2.9-1.7c-0.1-0.1-0.3-0.1-0.5,0L158,326c-0.1,0.1-0.1,0.2,0,0.3l2.9,1.7
				C161.1,328,161.2,328,161.4,327.9z M157.2,325.5l3.3-1.9c0.1-0.1,0.1-0.2,0-0.3l-2.9-1.7c-0.1-0.1-0.3-0.1-0.5,0l-3.3,1.9
				c-0.1,0.1-0.1,0.2,0,0.3l2.9,1.7C156.9,325.5,157,325.5,157.2,325.5z M165.6,330.3l3.3-1.9c0.1-0.1,0.1-0.2,0-0.3l-2.9-1.7
				c-0.1-0.1-0.3-0.1-0.5,0l-3.3,1.9c-0.1,0.1-0.1,0.2,0,0.3l2.9,1.7C165.2,330.4,165.4,330.4,165.6,330.3z M148.3,320.6
				c0.1,0.1,0.3,0.1,0.5,0l3.3-1.9c0.1-0.1,0.1-0.2,0-0.3l-2.9-1.7c-0.1-0.1-0.3-0.1-0.5,0l-3.3,1.9c-0.1,0.1-0.1,0.2,0,0.3
				L148.3,320.6L148.3,320.6z M153,323l3.3-1.9c0.1-0.1,0.1-0.2,0-0.3l-2.9-1.7c-0.1-0.1-0.3-0.1-0.5,0l-3.3,1.9
				c-0.1,0.1-0.1,0.2,0,0.3l2.9,1.7C152.7,323.1,152.8,323.1,153,323z M144.1,318.2c0.1,0.1,0.3,0.1,0.5,0l3.3-1.9
				c0.1-0.1,0.1-0.2,0-0.3l-2.9-1.7c-0.1-0.1-0.3-0.1-0.5,0l-3.3,1.9c-0.1,0.1-0.1,0.2,0,0.3L144.1,318.2L144.1,318.2z M125.7,281.7
				c0.1-0.1,0.1-0.2,0-0.3l-2.9-1.7c-0.1-0.1-0.3-0.1-0.5,0l-0.9,0.5c-0.1,0.1-0.1,0.2,0,0.3l2.9,1.7c0.1,0.1,0.3,0.1,0.5,0
				L125.7,281.7z M148.9,293.6c0.1-0.1,0.1-0.2,0-0.3l-2.9-1.7c-0.1-0.1-0.3-0.1-0.5,0l-3.3,1.9c-0.1,0.1-0.1,0.2,0,0.3l2.9,1.7
				c0.1,0.1,0.3,0.1,0.5,0L148.9,293.6z M140.4,288.8c0.1-0.1,0.1-0.2,0-0.3l-2.9-1.7c-0.1-0.1-0.3-0.1-0.5,0l-3.3,1.9
				c-0.1,0.1-0.1,0.2,0,0.3l2.9,1.7c0.1,0.1,0.3,0.1,0.5,0L140.4,288.8z M154,296.6c0.1-0.1,0.1-0.2,0-0.3l-2.9-1.7
				c-0.1-0.1-0.3-0.1-0.5,0l-3.3,1.9c-0.1,0.1-0.1,0.2,0,0.3l2.9,1.7c0.1,0.1,0.3,0.1,0.5,0L154,296.6z M144.7,291.3
				c0.1-0.1,0.1-0.2,0-0.3l-2.9-1.7c-0.1-0.1-0.3-0.1-0.5,0l-3.3,1.9c-0.1,0.1-0.1,0.2,0,0.3l2.9,1.7c0.1,0.1,0.3,0.1,0.5,0
				L144.7,291.3z M162.4,301.5c0.1-0.1,0.1-0.2,0-0.3l-2.9-1.7c-0.1-0.1-0.3-0.1-0.5,0l-3.3,1.9c-0.1,0.1-0.1,0.2,0,0.3l2.9,1.7
				c0.1,0.1,0.3,0.1,0.5,0L162.4,301.5z M158.2,299.1c0.1-0.1,0.1-0.2,0-0.3l-2.9-1.7c-0.1-0.1-0.3-0.1-0.5,0l-3.3,1.9
				c-0.1,0.1-0.1,0.2,0,0.3l2.9,1.7c0.1,0.1,0.3,0.1,0.5,0L158.2,299.1z M134.1,286.6c0.1-0.1,0.1-0.2,0-0.3l-2.9-1.7
				c-0.1-0.1-0.3-0.1-0.5,0l-0.9,0.5c-0.1,0.1-0.1,0.2,0,0.3l2.9,1.7c0.1,0.1,0.3,0.1,0.5,0L134.1,286.6z M121.5,279.3
				c0.1-0.1,0.1-0.2,0-0.3l-2.9-1.6c-0.1-0.1-0.3-0.1-0.5,0l-0.9,0.5c-0.1,0.1-0.1,0.2,0,0.3l2.9,1.7c0.1,0.1,0.3,0.1,0.5,0
				L121.5,279.3z M117,281.9c0.1-0.1,0.1-0.2,0-0.3l-2.9-1.7c-0.1-0.1-0.3-0.1-0.5,0l-3.4,1.9c-0.1,0.1-0.1,0.2,0,0.3l2.9,1.7
				c0.1,0.1,0.3,0.1,0.5,0L117,281.9z M103.6,294.5l3.3-1.9c0.1-0.1,0.1-0.2,0-0.3l-2.9-1.7c-0.1-0.1-0.3-0.1-0.5,0l-3.3,1.9
				c-0.1,0.1-0.1,0.2,0,0.3l2.9,1.7C103.2,294.6,103.4,294.6,103.6,294.5z M129.9,284.1c0.1-0.1,0.1-0.2,0-0.3l-2.9-1.7
				c-0.1-0.1-0.3-0.1-0.5,0l-0.9,0.5c-0.1,0.1-0.1,0.2,0,0.3l2.9,1.7c0.1,0.1,0.3,0.1,0.5,0L129.9,284.1z M166.7,303.9
				c0.1-0.1,0.1-0.2,0-0.3l-2.9-1.7c-0.1-0.1-0.3-0.1-0.5,0l-3.4,1.9c-0.1,0.1-0.1,0.2,0,0.3l2.9,1.7c0.1,0.1,0.3,0.1,0.5,0
				L166.7,303.9z"/>
			<path class="st2" d="M144.6,332.9l-16.3,9.4c-1,0.5-2.1,0.5-3.1,0l-28.4-16.4c-0.2-0.1-0.4-0.3-0.4-0.4c-0.2-0.5,0-1.1,0.4-1.3
				l16.3-9.4c1-0.5,2.1-0.5,3.1,0l28.4,16.4C145.5,331.6,145.5,332.4,144.6,332.9z"/>
			<path class="st6" d="M144.6,332.9l-16.3,9.4c-1,0.5-2.1,0.5-3.1,0l-28.4-16.4c-0.2-0.1-0.4-0.3-0.4-0.4c-0.2-0.5,0-1.1,0.4-1.3
				l16.3-9.4c1-0.5,2.1-0.5,3.1,0l28.4,16.4C145.5,331.6,145.5,332.4,144.6,332.9z"/>
			<path class="st2" d="M238.6,320.6c-0.1,0.1-0.2,0.1-0.2,0.2c-0.3,0.1-0.5,0.3-0.8,0.3c0.3-0.1,0.5-0.2,0.8-0.3
				C238.4,320.8,238.5,320.7,238.6,320.6z"/>
			<path class="st2" d="M233.8,321L233.8,321L233.8,321z"/>
		</g>
		<g id="freepik--Window--inject-97">
			<path class="st2" d="M229.7,242.8L138.2,190v59c0.1,1.3,0.8,2.6,1.9,3.3l87.7,50.6c1.1,0.6,1.9,0.1,1.9-1.1L229.7,242.8z"/>
			<g class="st9">
				<path class="st4" d="M229.7,242.8L138.2,190v59c0.1,1.3,0.8,2.6,1.9,3.3l87.7,50.6c1.1,0.6,1.9,0.1,1.9-1.1L229.7,242.8z"/>
			</g>
			<path class="st2" d="M229.7,242.8L138.2,190v-4c0-1.2,0.9-1.7,1.9-1.1l87.7,50.6c1.1,0.7,1.8,2,1.9,3.3L229.7,242.8z"/>
			<path class="st5" d="M148.1,192.6c0,0.6,0.4,1.2,0.9,1.6c0.5,0.3,0.9,0.1,0.9-0.5c0-0.6-0.4-1.2-0.9-1.6
				C148.5,191.8,148.1,192,148.1,192.6z"/>
			<path class="st5" d="M144.9,190.8c0,0.6,0.4,1.2,0.9,1.6c0.5,0.3,0.9,0.1,0.9-0.5c0-0.6-0.4-1.2-0.9-1.6
				C145.3,190,144.9,190.2,144.9,190.8z"/>
			<path class="st5" d="M141.8,189c0,0.6,0.4,1.2,0.9,1.6c0.5,0.3,0.9,0.1,0.9-0.5c0-0.6-0.4-1.2-0.9-1.6
				C142.2,188.2,141.8,188.4,141.8,189z"/>
		</g>
		<g id="freepik--www--inject-97">
			<path class="st7" d="M201.9,250.4c0.2,0.1,0.3,0.3,0.4,0.5c0.1,0.2,0.2,0.4,0.2,0.6l1.4,7.3l1.4-5.7c0-0.1,0.1-0.2,0.2-0.3
				c0.1-0.1,0.2-0.1,0.4,0l2.3,1.3c0.1,0.1,0.3,0.2,0.3,0.4c0.1,0.2,0.1,0.4,0.1,0.6c0,0.1,0,0.1,0,0.2l-3,11.5
				c0,0.1-0.1,0.3-0.2,0.4c-0.1,0.1-0.2,0.1-0.4,0l-2.1-1.2c-0.2-0.1-0.3-0.3-0.4-0.5c-0.1-0.2-0.1-0.4-0.2-0.6L201,258l-1.3,5.2
				c0,0.1-0.1,0.3-0.2,0.4c-0.1,0.1-0.2,0.1-0.4,0l-2.1-1.2c-0.2-0.1-0.3-0.3-0.4-0.5c-0.1-0.2-0.2-0.4-0.2-0.6l-3-15
				c0-0.1,0-0.2,0-0.2c0-0.1,0-0.3,0.1-0.4c0.1-0.1,0.2-0.1,0.3,0l2.3,1.3c0.2,0.1,0.3,0.3,0.4,0.5c0.1,0.2,0.2,0.4,0.2,0.6l1.4,7.3
				l1.4-5.7c0-0.1,0.1-0.2,0.2-0.3c0.1-0.1,0.2-0.1,0.4,0L201.9,250.4z"/>
			<path class="st7" d="M184.9,240.6c0.2,0.1,0.3,0.3,0.4,0.5c0.1,0.2,0.2,0.4,0.2,0.6l1.4,7.3l1.4-5.7c0-0.1,0.1-0.2,0.2-0.3
				c0.1-0.1,0.2-0.1,0.4,0l2.3,1.3c0.1,0.1,0.3,0.2,0.3,0.4c0.1,0.2,0.1,0.4,0.1,0.6c0,0.1,0,0.1,0,0.2l-3,11.5
				c0,0.1-0.1,0.3-0.2,0.4c-0.1,0.1-0.2,0.1-0.4,0l-2.1-1.2c-0.2-0.1-0.3-0.3-0.4-0.5c-0.1-0.2-0.1-0.4-0.2-0.6l-1.3-6.8l-1.3,5.2
				c0,0.1-0.1,0.3-0.2,0.4c-0.1,0.1-0.2,0.1-0.4,0l-2.1-1.2c-0.2-0.1-0.3-0.3-0.4-0.5c-0.1-0.2-0.2-0.4-0.2-0.6l-3-14.9
				c0-0.1,0-0.2,0-0.2c0-0.1,0-0.3,0.1-0.4c0.1-0.1,0.2-0.1,0.3,0l2.3,1.3c0.2,0.1,0.3,0.3,0.4,0.5c0.1,0.2,0.2,0.4,0.2,0.6l1.4,7.3
				l1.4-5.7c0-0.1,0.1-0.2,0.2-0.3c0.1-0.1,0.2-0.1,0.4,0L184.9,240.6z"/>
			<path class="st7" d="M167.8,230.7c0.2,0.1,0.3,0.3,0.4,0.5c0.1,0.2,0.2,0.4,0.2,0.6l1.4,7.3l1.4-5.7c0-0.1,0.1-0.2,0.2-0.3
				c0.1-0.1,0.2-0.1,0.4,0l2.3,1.3c0.1,0.1,0.3,0.2,0.3,0.4c0.1,0.2,0.1,0.4,0.1,0.6c0,0.1,0,0.1,0,0.2l-3,11.5
				c0,0.1-0.1,0.3-0.2,0.4c-0.1,0.1-0.2,0.1-0.4,0l-2.1-1.2c-0.2-0.1-0.3-0.3-0.4-0.5c-0.1-0.2-0.1-0.4-0.2-0.6l-1.3-6.8l-1.3,5.2
				c0,0.1-0.1,0.3-0.2,0.4c-0.1,0.1-0.2,0.1-0.4,0l-2.1-1.2c-0.2-0.1-0.3-0.3-0.4-0.5c-0.1-0.2-0.2-0.4-0.2-0.6l-3-15
				c0-0.1,0-0.2,0-0.2c0-0.1,0-0.3,0.1-0.4c0.1-0.1,0.2-0.1,0.3,0l2.3,1.3c0.2,0.1,0.3,0.3,0.4,0.5c0.1,0.2,0.2,0.4,0.2,0.6l1.4,7.3
				l1.4-5.7c0-0.1,0.1-0.2,0.2-0.3c0.1-0.1,0.2-0.1,0.4,0L167.8,230.7z"/>
		</g>
	</g>
</g>
<g id="freepik--Server--inject-97">
	<g id="freepik--server--inject-97">
		<polygon class="st2" points="361,328.5 426,366 361,403.5 296,366 		"/>
		<polygon class="st10" points="361,328.5 426,366 361,403.5 296,366 		"/>
		<polygon class="st10" points="426,366 421.9,363.6 361,398.8 361,403.5 		"/>
		<path class="st2" d="M296,366v15.8c0.1,1.8,1.1,3.5,2.6,4.5l29.9,17.3l28.2,16.3l0,0c1.3,0.7,2.8,1,4.3,1v-17.3L296,366z"/>
		<path class="st11" d="M296,366v15.8c0.1,1.8,1.1,3.5,2.6,4.5l29.9,17.3l28.2,16.3l0,0c1.3,0.7,2.8,1,4.3,1v-17.3L296,366z"/>
		<path class="st2" d="M300.1,375.5v4.4c0.1,1.5,0.9,2.9,2.1,3.8l32.2,18.6c1.2,0.7,2.2,0.1,2.2-1.2v-4.4c-0.1-1.5-0.9-2.9-2.2-3.8
			l-32.2-18.6C301.1,373.6,300.1,374.1,300.1,375.5z"/>
		<path class="st8" d="M302.8,377.8l0.5,0.3c0.2,0.2,0.4,0.4,0.4,0.8v2.1c0,0.2-0.2,0.4-0.4,0.2l-0.5-0.3c-0.2-0.2-0.4-0.4-0.4-0.8
			V378C302.4,377.7,302.6,377.6,302.8,377.8z"/>
		<path class="st8" d="M305,379l0.5,0.3c0.2,0.2,0.4,0.4,0.4,0.8v2.1c0,0.2-0.2,0.4-0.4,0.2l-0.5-0.3c-0.3-0.2-0.4-0.4-0.4-0.8v-2.1
			C304.6,379,304.7,378.9,305,379z"/>
		<path class="st8" d="M307.2,380.2l0.5,0.3c0.2,0.2,0.4,0.4,0.4,0.8v2.1c0,0.2-0.2,0.4-0.4,0.2l-0.5-0.3c-0.3-0.2-0.4-0.4-0.4-0.8
			v-2.1C306.7,380.2,306.9,380.1,307.2,380.2z"/>
		<path class="st7" d="M309.4,381.5l0.5,0.3c0.2,0.2,0.4,0.4,0.4,0.8v2.1c0,0.2-0.2,0.4-0.4,0.2l-0.5-0.3c-0.2-0.2-0.4-0.4-0.4-0.8
			v-2.1C308.9,381.5,309.1,381.4,309.4,381.5z"/>
		<path class="st7" d="M311.2,382.8c0.1-0.1,0.3-0.1,0.4,0l0.5,0.3c0.3,0.2,0.4,0.4,0.4,0.8v2.1c0,0.2-0.2,0.4-0.4,0.2l-0.5-0.3
			c-0.3-0.2-0.4-0.4-0.4-0.8V383C311.1,382.9,311.1,382.9,311.2,382.8z"/>
		<path class="st8" d="M313.8,384l0.5,0.3c0.3,0.2,0.4,0.4,0.4,0.8v2.1c0,0.2-0.2,0.4-0.4,0.2l-0.5-0.3c-0.3-0.2-0.4-0.4-0.4-0.8
			v-2.1C313.3,384,313.5,383.9,313.8,384z"/>
		<path class="st8" d="M315.9,385.3l0.5,0.3c0.2,0.2,0.4,0.4,0.4,0.8v2.1c0,0.2-0.2,0.4-0.4,0.2l-0.5-0.3c-0.2-0.2-0.4-0.4-0.4-0.8
			v-2.1C315.5,385.3,315.7,385.2,315.9,385.3z"/>
		<path class="st8" d="M318.1,386.6l0.5,0.3c0.2,0.2,0.4,0.4,0.4,0.8v2.1c0,0.2-0.2,0.4-0.4,0.2l-0.5-0.3c-0.2-0.2-0.4-0.4-0.4-0.8
			v-2.1C317.7,386.5,317.9,386.4,318.1,386.6z"/>
		<path class="st8" d="M320.3,387.8l0.5,0.3c0.2,0.2,0.4,0.4,0.4,0.8v2.1c0,0.2-0.2,0.4-0.4,0.2l-0.5-0.3c-0.3-0.2-0.4-0.4-0.4-0.8
			v-2.1C319.9,387.8,320.1,387.7,320.3,387.8z"/>
		<path class="st8" d="M322.5,389.1l0.5,0.3c0.2,0.2,0.4,0.4,0.4,0.8v2.1c0,0.2-0.2,0.4-0.4,0.2l-0.5-0.3c-0.2-0.2-0.4-0.4-0.4-0.8
			v-2.1C322.1,389,322.3,388.9,322.5,389.1z"/>
		<path class="st8" d="M324.3,390.4c0.1-0.1,0.3-0.1,0.4,0l0.5,0.3c0.2,0.2,0.4,0.4,0.4,0.8v2.1c0,0.2-0.2,0.4-0.4,0.2l-0.5-0.3
			c-0.3-0.2-0.4-0.4-0.4-0.8v-2.1C324.2,390.5,324.3,390.4,324.3,390.4z"/>
		<path class="st8" d="M326.9,391.6l0.5,0.3c0.3,0.2,0.4,0.4,0.4,0.8v2.1c0,0.2-0.2,0.4-0.4,0.2l-0.5-0.3c-0.3-0.2-0.4-0.4-0.4-0.8
			v-2.1C326.4,391.6,326.6,391.5,326.9,391.6z"/>
		<path class="st7" d="M328.7,392.9c0.1-0.1,0.3-0.1,0.4-0.1l0.5,0.3c0.3,0.2,0.4,0.4,0.4,0.8v2.1c0,0.2-0.2,0.4-0.4,0.2l-0.5-0.3
			c-0.2-0.2-0.4-0.4-0.4-0.8v-2.1C328.6,393,328.6,393,328.7,392.9z"/>
		<path class="st8" d="M331.2,394.1l0.5,0.3c0.2,0.2,0.4,0.4,0.4,0.8v2.1c0,0.2-0.2,0.4-0.4,0.2l-0.5-0.3c-0.2-0.2-0.4-0.4-0.4-0.8
			v-2.1C330.8,394.1,331,394,331.2,394.1z"/>
		<path class="st8" d="M333.4,395.4l0.5,0.3c0.2,0.2,0.4,0.4,0.4,0.8v2.1c0,0.2-0.2,0.4-0.4,0.2l-0.5-0.3c-0.3-0.2-0.4-0.4-0.4-0.8
			v-2.1C333,395.4,333.2,395.2,333.4,395.4z"/>
		<path class="st2" d="M361,403.5v17.3c1.5,0,3-0.3,4.3-1l32.2-18.6l25.8-14.9c1.5-1,2.5-2.7,2.6-4.5V366L361,403.5z"/>
		<path class="st12" d="M361,403.5v17.3c1.5,0,3-0.3,4.3-1l32.2-18.6l25.8-14.9c1.5-1,2.5-2.7,2.6-4.5V366L361,403.5z"/>
		<g class="st9">
			<path class="st4" d="M417.9,377.9v4.4c-0.1,1.5-0.9,2.9-2.2,3.8l-16,9.2c-1.2,0.7-2.2,0.1-2.2-1.2v-4.4c0.1-1.5,0.9-2.9,2.2-3.8
				l16-9.2C416.9,375.9,417.9,376.5,417.9,377.9z"/>
		</g>
		<path class="st2" d="M413.5,381.9c0,0.2,0.1,0.3,0.1,0.5c-0.1,1.3-0.8,2.5-1.9,3.3c-0.2,0.1-0.3,0.2-0.5,0.2l-0.2,0.3l-0.9-0.5
			l0,0c-0.4-0.3-0.6-0.7-0.5-1.2c0.1-1.3,0.8-2.5,1.9-3.3c0.4-0.3,0.9-0.3,1.3-0.1l0,0l1,0.6L413.5,381.9z"/>
		<path class="st13" d="M413.5,381.9c0,0.2,0.1,0.3,0.1,0.5c-0.1,1.3-0.8,2.5-1.9,3.3c-0.2,0.1-0.3,0.2-0.5,0.2l-0.2,0.3l-0.9-0.5
			l0,0c-0.4-0.3-0.6-0.7-0.5-1.2c0.1-1.3,0.8-2.5,1.9-3.3c0.4-0.3,0.9-0.3,1.3-0.1l0,0l1,0.6L413.5,381.9z"/>
		<path class="st2" d="M414.2,382.8c-0.1,1.3-0.8,2.5-1.9,3.3c-1,0.6-1.9,0.1-1.9-1.1c0.1-1.3,0.8-2.5,1.9-3.3
			C413.3,381.1,414.2,381.6,414.2,382.8z"/>
		<path class="st2" d="M405.3,386.6c0,0.2,0.1,0.3,0.1,0.5c-0.1,1.3-0.8,2.5-1.9,3.3c-0.2,0.1-0.3,0.2-0.5,0.2l-0.2,0.3l-0.9-0.5
			l0,0c-0.4-0.3-0.6-0.7-0.6-1.2c0.1-1.3,0.8-2.5,1.9-3.3c0.4-0.3,0.9-0.3,1.3-0.1l0,0l1,0.6L405.3,386.6z"/>
		<path class="st13" d="M405.3,386.6c0,0.2,0.1,0.3,0.1,0.5c-0.1,1.3-0.8,2.5-1.9,3.3c-0.2,0.1-0.3,0.2-0.5,0.2l-0.2,0.3l-0.9-0.5
			l0,0c-0.4-0.3-0.6-0.7-0.6-1.2c0.1-1.3,0.8-2.5,1.9-3.3c0.4-0.3,0.9-0.3,1.3-0.1l0,0l1,0.6L405.3,386.6z"/>
		<path class="st2" d="M406,387.5c-0.1,1.3-0.8,2.5-1.9,3.3c-1,0.6-1.9,0.1-1.9-1.1c0.1-1.3,0.8-2.5,1.9-3.3
			C405.2,385.8,406,386.3,406,387.5z"/>
		<g class="st9">
			<path class="st4" d="M417.9,377.9v4.4c-0.1,1.5-0.9,2.9-2.2,3.8l-16,9.2c-1.2,0.7-2.2,0.1-2.2-1.2v-4.4c0.1-1.5,0.9-2.9,2.2-3.8
				l16-9.2C416.9,375.9,417.9,376.5,417.9,377.9z"/>
		</g>
		<path class="st2" d="M413.5,381.9c0,0.2,0.1,0.3,0.1,0.5c-0.1,1.3-0.8,2.5-1.9,3.3c-0.2,0.1-0.3,0.2-0.5,0.2l-0.2,0.3l-0.9-0.5
			l0,0c-0.4-0.3-0.6-0.7-0.5-1.2c0.1-1.3,0.8-2.5,1.9-3.3c0.4-0.3,0.9-0.3,1.3-0.1l0,0l1,0.6L413.5,381.9z"/>
		<path class="st13" d="M413.5,381.9c0,0.2,0.1,0.3,0.1,0.5c-0.1,1.3-0.8,2.5-1.9,3.3c-0.2,0.1-0.3,0.2-0.5,0.2l-0.2,0.3l-0.9-0.5
			l0,0c-0.4-0.3-0.6-0.7-0.5-1.2c0.1-1.3,0.8-2.5,1.9-3.3c0.4-0.3,0.9-0.3,1.3-0.1l0,0l1,0.6L413.5,381.9z"/>
		<path class="st2" d="M414.2,382.8c-0.1,1.3-0.8,2.5-1.9,3.3c-1,0.6-1.9,0.1-1.9-1.1c0.1-1.3,0.8-2.5,1.9-3.3
			C413.3,381.1,414.2,381.6,414.2,382.8z"/>
		<path class="st2" d="M405.3,386.6c0,0.2,0.1,0.3,0.1,0.5c-0.1,1.3-0.8,2.5-1.9,3.3c-0.2,0.1-0.3,0.2-0.5,0.2l-0.2,0.3l-0.9-0.5
			l0,0c-0.4-0.3-0.6-0.7-0.6-1.2c0.1-1.3,0.8-2.5,1.9-3.3c0.4-0.3,0.9-0.3,1.3-0.1l0,0l1,0.6L405.3,386.6z"/>
		<path class="st13" d="M405.3,386.6c0,0.2,0.1,0.3,0.1,0.5c-0.1,1.3-0.8,2.5-1.9,3.3c-0.2,0.1-0.3,0.2-0.5,0.2l-0.2,0.3l-0.9-0.5
			l0,0c-0.4-0.3-0.6-0.7-0.6-1.2c0.1-1.3,0.8-2.5,1.9-3.3c0.4-0.3,0.9-0.3,1.3-0.1l0,0l1,0.6L405.3,386.6z"/>
		<path class="st2" d="M406,387.5c-0.1,1.3-0.8,2.5-1.9,3.3c-1,0.6-1.9,0.1-1.9-1.1c0.1-1.3,0.8-2.5,1.9-3.3
			C405.2,385.8,406,386.3,406,387.5z"/>
		<path class="st2" d="M342.6,401.2c0,0.2-0.1,0.3-0.1,0.5c0.1,1.3,0.8,2.5,1.9,3.3c0.2,0.1,0.4,0.2,0.5,0.2l0.2,0.3l0.9-0.5l0,0
			c0.4-0.3,0.6-0.7,0.5-1.2c-0.1-1.3-0.8-2.5-1.9-3.3c-0.4-0.3-0.9-0.3-1.3-0.1l0,0l-1,0.6L342.6,401.2z"/>
		<path class="st14" d="M342.6,401.2c0,0.2-0.1,0.3-0.1,0.5c0.1,1.3,0.8,2.5,1.9,3.3c0.2,0.1,0.4,0.2,0.5,0.2l0.2,0.3l0.9-0.5l0,0
			c0.4-0.3,0.6-0.7,0.5-1.2c-0.1-1.3-0.8-2.5-1.9-3.3c-0.4-0.3-0.9-0.3-1.3-0.1l0,0l-1,0.6L342.6,401.2z"/>
		<path class="st2" d="M341.9,402.1c0.1,1.3,0.8,2.5,1.9,3.3c1,0.6,1.9,0.1,1.9-1.1c-0.1-1.3-0.8-2.5-1.9-3.3
			C342.7,400.4,341.9,400.9,341.9,402.1z"/>
		<path class="st13" d="M341.9,402.1c0.1,1.3,0.8,2.5,1.9,3.3c1,0.6,1.9,0.1,1.9-1.1c-0.1-1.3-0.8-2.5-1.9-3.3
			C342.7,400.4,341.9,400.9,341.9,402.1z"/>
		<path class="st2" d="M350.8,405.9c0,0.2-0.1,0.3-0.1,0.5c0.1,1.3,0.8,2.5,1.9,3.3c0.2,0.1,0.4,0.2,0.5,0.2l0.2,0.3l0.9-0.5l0,0
			c0.4-0.3,0.6-0.7,0.6-1.2c-0.1-1.3-0.8-2.5-1.9-3.3c-0.4-0.3-0.9-0.3-1.3-0.1l0,0l-1,0.6L350.8,405.9z"/>
		<path class="st14" d="M350.8,405.9c0,0.2-0.1,0.3-0.1,0.5c0.1,1.3,0.8,2.5,1.9,3.3c0.2,0.1,0.4,0.2,0.5,0.2l0.2,0.3l0.9-0.5l0,0
			c0.4-0.3,0.6-0.7,0.6-1.2c-0.1-1.3-0.8-2.5-1.9-3.3c-0.4-0.3-0.9-0.3-1.3-0.1l0,0l-1,0.6L350.8,405.9z"/>
		<path class="st2" d="M350.1,406.8c0.1,1.3,0.8,2.5,1.9,3.3c1,0.6,1.9,0.1,1.9-1.1c-0.1-1.3-0.8-2.5-1.9-3.3
			C350.9,405.1,350.1,405.6,350.1,406.8z"/>
		<path class="st13" d="M350.1,406.8c0.1,1.3,0.8,2.5,1.9,3.3c1,0.6,1.9,0.1,1.9-1.1c-0.1-1.3-0.8-2.5-1.9-3.3
			C350.9,405.1,350.1,405.6,350.1,406.8z"/>
		<polygon class="st2" points="361,300.3 426,337.8 361,375.4 296,337.8 		"/>
		<polygon class="st10" points="361,300.3 426,337.8 361,375.4 296,337.8 		"/>
		<polygon class="st10" points="426,337.8 421.9,335.5 361,370.7 361,375.4 		"/>
		<polygon class="st2" points="296,337.8 361,375.4 361,394.1 296,356.6 		"/>
		<polygon class="st11" points="296,337.8 361,375.4 361,394.1 296,356.6 		"/>
		<path class="st2" d="M300.1,347.4v4.4c0.1,1.5,0.9,2.9,2.2,3.8l32.2,18.6c1.2,0.7,2.2,0.1,2.2-1.2v-4.4c-0.1-1.5-0.9-2.9-2.2-3.8
			l-32.2-18.6C301.1,345.4,300.1,346,300.1,347.4z"/>
		<path class="st8" d="M302.8,349.6l0.5,0.3c0.2,0.2,0.4,0.4,0.4,0.8v2.1c0,0.2-0.2,0.4-0.4,0.2l-0.5-0.3c-0.2-0.2-0.4-0.4-0.4-0.8
			v-2.2C302.4,349.6,302.6,349.5,302.8,349.6z"/>
		<path class="st7" d="M305,350.9l0.5,0.3c0.2,0.2,0.4,0.4,0.4,0.8v2.1c0,0.2-0.2,0.4-0.4,0.2L305,354c-0.2-0.2-0.4-0.4-0.4-0.8
			v-2.1C304.6,350.8,304.7,350.7,305,350.9z"/>
		<path class="st8" d="M307.2,352.1l0.5,0.3c0.2,0.2,0.4,0.4,0.4,0.8v2.1c0,0.2-0.2,0.4-0.4,0.2l-0.5-0.3c-0.2-0.2-0.4-0.4-0.4-0.8
			v-2.1C306.7,352.1,306.9,352,307.2,352.1z"/>
		<path class="st7" d="M309.4,353.4l0.5,0.3c0.3,0.2,0.4,0.4,0.4,0.8v2.1c0,0.2-0.2,0.4-0.4,0.2l-0.5-0.3c-0.2-0.2-0.4-0.4-0.4-0.8
			v-2.1C308.9,353.4,309.1,353.2,309.4,353.4z"/>
		<path class="st7" d="M311.5,354.6l0.5,0.3c0.3,0.2,0.4,0.4,0.4,0.8v2.1c0,0.2-0.2,0.4-0.4,0.2l-0.5-0.3c-0.3-0.2-0.4-0.4-0.4-0.8
			v-2.1C311.1,354.6,311.3,354.5,311.5,354.6z"/>
		<path class="st8" d="M313.8,355.9l0.5,0.3c0.3,0.2,0.4,0.4,0.4,0.8v2.1c0,0.2-0.2,0.4-0.4,0.2l-0.5-0.3c-0.3-0.2-0.4-0.4-0.4-0.8
			v-2.1C313.3,355.9,313.5,355.8,313.8,355.9z"/>
		<path class="st8" d="M315.9,357.2l0.5,0.3c0.2,0.2,0.4,0.4,0.4,0.8v2.1c0,0.2-0.2,0.4-0.4,0.2l-0.5-0.3c-0.2-0.2-0.4-0.4-0.4-0.8
			v-2.1C315.5,357.1,315.7,357,315.9,357.2z"/>
		<path class="st8" d="M318.1,358.4l0.5,0.3c0.2,0.2,0.4,0.4,0.4,0.8v2.1c0,0.2-0.2,0.4-0.4,0.2l-0.5-0.3c-0.2-0.2-0.4-0.4-0.4-0.8
			v-2.1C317.7,358.4,317.9,358.3,318.1,358.4z"/>
		<path class="st7" d="M320.3,359.7l0.5,0.3c0.2,0.2,0.4,0.4,0.4,0.8v2.1c0,0.2-0.2,0.4-0.4,0.2l-0.5-0.3c-0.2-0.2-0.4-0.4-0.4-0.8
			v-2.1C319.9,359.7,320.1,359.5,320.3,359.7z"/>
		<path class="st8" d="M322.5,361l0.5,0.3c0.2,0.2,0.4,0.4,0.4,0.8v2.1c0,0.2-0.2,0.4-0.4,0.2l-0.5-0.3c-0.2-0.2-0.4-0.4-0.4-0.8
			v-2.1C322.1,360.9,322.3,360.8,322.5,361z"/>
		<path class="st7" d="M324.7,362.2l0.5,0.3c0.2,0.2,0.4,0.4,0.4,0.8v2.1c0,0.2-0.2,0.4-0.4,0.2l-0.5-0.3c-0.3-0.2-0.4-0.4-0.4-0.8
			v-2.1C324.2,362.2,324.4,362.1,324.7,362.2z"/>
		<path class="st8" d="M326.9,363.5l0.5,0.3c0.3,0.2,0.4,0.4,0.4,0.8v2.1c0,0.2-0.2,0.4-0.4,0.2l-0.5-0.3c-0.3-0.2-0.4-0.4-0.4-0.8
			v-2.1C326.4,363.4,326.6,363.3,326.9,363.5z"/>
		<path class="st7" d="M329.1,364.8l0.5,0.3c0.2,0.2,0.4,0.4,0.4,0.8v2.1c0,0.2-0.2,0.4-0.4,0.2l-0.5-0.3c-0.2-0.2-0.4-0.4-0.4-0.8
			V365C328.6,364.7,328.8,364.6,329.1,364.8z"/>
		<path class="st8" d="M331.2,366l0.5,0.3c0.2,0.2,0.4,0.4,0.4,0.8v2.1c0,0.2-0.2,0.4-0.4,0.2l-0.5-0.3c-0.3-0.2-0.4-0.4-0.4-0.8
			v-2.1C330.8,366,331,365.9,331.2,366z"/>
		<path class="st8" d="M333.4,367.2l0.5,0.3c0.2,0.2,0.4,0.4,0.4,0.8v2.1c0,0.2-0.2,0.4-0.4,0.2l-0.5-0.3c-0.2-0.2-0.4-0.4-0.4-0.8
			v-2.1C333,367.2,333.2,367.1,333.4,367.2z"/>
		<polygon class="st2" points="361,375.4 426,337.8 426,356.6 361,394.1 		"/>
		<polygon class="st12" points="361,375.4 426,337.8 426,356.6 361,394.1 		"/>
		<g class="st9">
			<path class="st4" d="M417.9,349.7v4.4c-0.1,1.5-0.9,2.9-2.2,3.8l-16,9.2c-1.2,0.7-2.2,0.1-2.2-1.2v-4.4c0.1-1.5,0.9-2.9,2.2-3.8
				l16-9.2C416.9,347.8,417.9,348.3,417.9,349.7z"/>
		</g>
		<path class="st2" d="M413.5,353.7c0,0.2,0.1,0.3,0.1,0.5c-0.1,1.3-0.8,2.5-1.9,3.3c-0.2,0.1-0.3,0.2-0.5,0.2l-0.2,0.3l-0.9-0.5
			l0,0c-0.4-0.3-0.6-0.7-0.5-1.2c0.1-1.3,0.8-2.5,1.9-3.3c0.4-0.3,0.9-0.3,1.3-0.1l0,0l1,0.6L413.5,353.7z"/>
		<path class="st13" d="M413.5,353.7c0,0.2,0.1,0.3,0.1,0.5c-0.1,1.3-0.8,2.5-1.9,3.3c-0.2,0.1-0.3,0.2-0.5,0.2l-0.2,0.3l-0.9-0.5
			l0,0c-0.4-0.3-0.6-0.7-0.5-1.2c0.1-1.3,0.8-2.5,1.9-3.3c0.4-0.3,0.9-0.3,1.3-0.1l0,0l1,0.6L413.5,353.7z"/>
		<path class="st2" d="M414.2,354.6c-0.1,1.3-0.8,2.5-1.9,3.3c-1,0.6-1.9,0.1-1.9-1.1c0.1-1.3,0.8-2.5,1.9-3.3
			C413.3,352.9,414.2,353.4,414.2,354.6z"/>
		<path class="st2" d="M405.3,358.5c0,0.2,0.1,0.3,0.1,0.5c-0.1,1.3-0.8,2.5-1.9,3.3c-0.2,0.1-0.3,0.2-0.5,0.2l-0.2,0.3l-0.9-0.5
			l0,0c-0.4-0.3-0.6-0.7-0.6-1.2c0.1-1.3,0.8-2.5,1.9-3.3c0.4-0.3,0.9-0.3,1.3-0.1l0,0l1,0.6L405.3,358.5z"/>
		<path class="st13" d="M405.3,358.5c0,0.2,0.1,0.3,0.1,0.5c-0.1,1.3-0.8,2.5-1.9,3.3c-0.2,0.1-0.3,0.2-0.5,0.2l-0.2,0.3l-0.9-0.5
			l0,0c-0.4-0.3-0.6-0.7-0.6-1.2c0.1-1.3,0.8-2.5,1.9-3.3c0.4-0.3,0.9-0.3,1.3-0.1l0,0l1,0.6L405.3,358.5z"/>
		<path class="st2" d="M406,359.3c-0.1,1.3-0.8,2.5-1.9,3.3c-1,0.6-1.9,0.1-1.9-1.1c0.1-1.3,0.8-2.5,1.9-3.3
			C405.2,357.6,406,358.1,406,359.3z"/>
		<polygon class="st7" points="361,398.8 361,394.1 304.1,361.3 304.1,366 		"/>
		<polygon class="st2" points="361,394.1 361,398.8 421.9,363.6 421.9,358.9 		"/>
		<polygon class="st5" points="361,394.1 361,398.8 421.9,363.6 421.9,358.9 		"/>
		<path class="st2" d="M342.6,373.1c0,0.2-0.1,0.3-0.1,0.5c0.1,1.3,0.8,2.5,1.9,3.3c0.2,0.1,0.4,0.2,0.5,0.2l0.2,0.3l0.9-0.5l0,0
			c0.4-0.3,0.6-0.7,0.5-1.2c-0.1-1.3-0.8-2.5-1.9-3.3c-0.4-0.3-0.9-0.3-1.3-0.1l0,0l-1,0.6L342.6,373.1z"/>
		<path class="st14" d="M342.6,373.1c0,0.2-0.1,0.3-0.1,0.5c0.1,1.3,0.8,2.5,1.9,3.3c0.2,0.1,0.4,0.2,0.5,0.2l0.2,0.3l0.9-0.5l0,0
			c0.4-0.3,0.6-0.7,0.5-1.2c-0.1-1.3-0.8-2.5-1.9-3.3c-0.4-0.3-0.9-0.3-1.3-0.1l0,0l-1,0.6L342.6,373.1z"/>
		<path class="st2" d="M341.9,373.9c0.1,1.3,0.8,2.5,1.9,3.3c1,0.6,1.9,0.1,1.9-1.1c-0.1-1.3-0.8-2.5-1.9-3.2
			C342.7,372.3,341.9,372.7,341.9,373.9z"/>
		<path class="st13" d="M341.9,373.9c0.1,1.3,0.8,2.5,1.9,3.3c1,0.6,1.9,0.1,1.9-1.1c-0.1-1.3-0.8-2.5-1.9-3.2
			C342.7,372.3,341.9,372.7,341.9,373.9z"/>
		<path class="st2" d="M350.8,377.8c0,0.2-0.1,0.3-0.1,0.5c0.1,1.3,0.8,2.5,1.9,3.3c0.2,0.1,0.4,0.2,0.5,0.2l0.2,0.3l0.9-0.5l0,0
			c0.4-0.3,0.6-0.7,0.6-1.2c-0.1-1.3-0.8-2.5-1.9-3.3c-0.4-0.3-0.9-0.3-1.3-0.1l0,0l-1,0.6L350.8,377.8z"/>
		<path class="st14" d="M350.8,377.8c0,0.2-0.1,0.3-0.1,0.5c0.1,1.3,0.8,2.5,1.9,3.3c0.2,0.1,0.4,0.2,0.5,0.2l0.2,0.3l0.9-0.5l0,0
			c0.4-0.3,0.6-0.7,0.6-1.2c-0.1-1.3-0.8-2.5-1.9-3.3c-0.4-0.3-0.9-0.3-1.3-0.1l0,0l-1,0.6L350.8,377.8z"/>
		<path class="st2" d="M350.1,378.7c0.1,1.3,0.8,2.5,1.9,3.3c1,0.6,1.9,0.1,1.9-1.1c-0.1-1.3-0.8-2.5-1.9-3.3
			C350.9,377,350.1,377.5,350.1,378.7z"/>
		<path class="st13" d="M350.1,378.7c0.1,1.3,0.8,2.5,1.9,3.3c1,0.6,1.9,0.1,1.9-1.1c-0.1-1.3-0.8-2.5-1.9-3.3
			C350.9,377,350.1,377.5,350.1,378.7z"/>
		<polygon class="st2" points="361,272.2 426,309.7 361,347.2 296,309.7 		"/>
		<polygon class="st10" points="361,272.2 426,309.7 361,347.2 296,309.7 		"/>
		<polygon class="st10" points="426,309.7 421.9,307.3 361,342.5 361,347.2 		"/>
		<polygon class="st2" points="296,309.7 361,347.2 361,366 296,328.5 		"/>
		<polygon class="st11" points="296,309.7 361,347.2 361,366 296,328.5 		"/>
		<path class="st2" d="M300.1,319.2v4.4c0.1,1.5,0.9,2.9,2.2,3.8l32.2,18.6c1.2,0.7,2.2,0.1,2.2-1.2v-4.4c-0.1-1.5-0.9-2.9-2.2-3.8
			L302.2,318C301.1,317.3,300.1,317.8,300.1,319.2z"/>
		<path class="st8" d="M302.8,321.4l0.5,0.3c0.2,0.2,0.4,0.4,0.4,0.8v2.1c0,0.2-0.2,0.4-0.4,0.2l-0.5-0.3c-0.2-0.2-0.4-0.4-0.4-0.8
			v-2.1C302.4,321.4,302.6,321.3,302.8,321.4z"/>
		<path class="st8" d="M305,322.7l0.5,0.3c0.2,0.2,0.4,0.4,0.4,0.8v2.1c0,0.2-0.2,0.4-0.4,0.2l-0.5-0.3c-0.2-0.2-0.4-0.4-0.4-0.8
			v-2.1C304.6,322.7,304.7,322.5,305,322.7z"/>
		<path class="st8" d="M307.2,324l0.5,0.3c0.2,0.2,0.4,0.4,0.4,0.8v2.1c0,0.2-0.2,0.4-0.4,0.2l-0.5-0.3c-0.2-0.2-0.4-0.4-0.4-0.8
			v-2.1C306.7,323.9,306.9,323.8,307.2,324z"/>
		<path class="st8" d="M309.4,325.2l0.5,0.3c0.3,0.2,0.4,0.4,0.4,0.8v2.1c0,0.2-0.2,0.4-0.4,0.2l-0.5-0.3c-0.2-0.2-0.4-0.4-0.4-0.8
			v-2.1C308.9,325.2,309.1,325.1,309.4,325.2z"/>
		<path class="st7" d="M311.5,326.5l0.5,0.3c0.3,0.2,0.4,0.4,0.4,0.8v2.1c0,0.2-0.2,0.4-0.4,0.2l-0.5-0.3c-0.3-0.2-0.4-0.4-0.4-0.8
			v-2.1C311.1,326.4,311.3,326.3,311.5,326.5z"/>
		<path class="st7" d="M313.8,327.8l0.5,0.3c0.3,0.2,0.4,0.4,0.4,0.8v2.1c0,0.2-0.2,0.4-0.4,0.2l-0.5-0.3c-0.3-0.2-0.4-0.4-0.4-0.8
			V328C313.3,327.7,313.5,327.6,313.8,327.8z"/>
		<path class="st8" d="M315.9,329l0.5,0.3c0.2,0.2,0.4,0.4,0.4,0.8v2.1c0,0.2-0.2,0.4-0.4,0.2l-0.5-0.3c-0.2-0.2-0.4-0.4-0.4-0.8
			v-2.1C315.5,329,315.7,328.9,315.9,329z"/>
		<path class="st8" d="M318.1,330.2l0.5,0.3c0.2,0.2,0.4,0.4,0.4,0.8v2.1c0,0.2-0.2,0.4-0.4,0.2l-0.5-0.3c-0.2-0.2-0.4-0.4-0.4-0.8
			v-2.1C317.7,330.2,317.9,330.1,318.1,330.2z"/>
		<path class="st8" d="M320.3,331.5l0.5,0.3c0.2,0.2,0.4,0.4,0.4,0.8v2.1c0,0.2-0.2,0.4-0.4,0.2l-0.5-0.3c-0.2-0.2-0.4-0.4-0.4-0.8
			v-2.1C319.9,331.5,320.1,331.4,320.3,331.5z"/>
		<path class="st7" d="M322.5,332.8l0.5,0.3c0.3,0.2,0.4,0.4,0.4,0.8v2.1c0,0.2-0.2,0.4-0.4,0.2l-0.5-0.3c-0.2-0.2-0.4-0.4-0.4-0.8
			V333C322.1,332.8,322.3,332.6,322.5,332.8z"/>
		<path class="st8" d="M324.7,334l0.5,0.3c0.2,0.2,0.4,0.4,0.4,0.8v2.1c0,0.2-0.2,0.4-0.4,0.2l-0.5-0.3c-0.3-0.2-0.4-0.4-0.4-0.8
			v-2.1C324.2,334,324.4,333.9,324.7,334z"/>
		<path class="st8" d="M326.9,335.3l0.5,0.3c0.3,0.2,0.4,0.4,0.4,0.8v2.1c0,0.2-0.2,0.4-0.4,0.2l-0.5-0.3c-0.3-0.2-0.4-0.4-0.4-0.8
			v-2.1C326.4,335.3,326.6,335.2,326.9,335.3z"/>
		<path class="st7" d="M329.1,336.6l0.5,0.3c0.2,0.2,0.4,0.4,0.4,0.8v2.1c0,0.2-0.2,0.4-0.4,0.2l-0.5-0.3c-0.2-0.2-0.4-0.4-0.4-0.8
			v-2.1C328.6,336.5,328.8,336.4,329.1,336.6z"/>
		<path class="st8" d="M331.2,337.8l0.5,0.3c0.2,0.2,0.4,0.4,0.4,0.8v2.1c0,0.2-0.2,0.4-0.4,0.2l-0.5-0.3c-0.2-0.2-0.4-0.4-0.4-0.8
			v-2.1C330.8,337.8,331,337.7,331.2,337.8z"/>
		<path class="st7" d="M333.4,339.1l0.5,0.3c0.2,0.2,0.4,0.4,0.4,0.8v2.1c0,0.2-0.2,0.4-0.4,0.2l-0.5-0.3c-0.2-0.2-0.4-0.4-0.4-0.8
			v-2.1C333,339.1,333.2,338.9,333.4,339.1z"/>
		<polygon class="st2" points="361,347.2 426,309.7 426,328.5 361,366 		"/>
		<polygon class="st12" points="361,347.2 426,309.7 426,328.5 361,366 		"/>
		<g class="st9">
			<path class="st4" d="M417.9,321.6v4.4c-0.1,1.5-0.9,2.9-2.2,3.7l-16,9.2c-1.2,0.7-2.2,0.1-2.2-1.2v-4.4c0.1-1.5,0.9-2.9,2.2-3.8
				l16-9.2C416.9,319.6,417.9,320.2,417.9,321.6z"/>
		</g>
		<path class="st2" d="M413.5,325.6c0,0.2,0.1,0.3,0.1,0.5c-0.1,1.3-0.8,2.5-1.9,3.3c-0.2,0.1-0.3,0.2-0.5,0.2l-0.2,0.3l-0.9-0.5
			l0,0c-0.4-0.3-0.6-0.7-0.5-1.2c0.1-1.3,0.8-2.5,1.9-3.3c0.4-0.3,0.9-0.3,1.3-0.1l0,0l1,0.6L413.5,325.6z"/>
		<path class="st13" d="M413.5,325.6c0,0.2,0.1,0.3,0.1,0.5c-0.1,1.3-0.8,2.5-1.9,3.3c-0.2,0.1-0.3,0.2-0.5,0.2l-0.2,0.3l-0.9-0.5
			l0,0c-0.4-0.3-0.6-0.7-0.5-1.2c0.1-1.3,0.8-2.5,1.9-3.3c0.4-0.3,0.9-0.3,1.3-0.1l0,0l1,0.6L413.5,325.6z"/>
		<path class="st2" d="M414.2,326.4c-0.1,1.3-0.8,2.5-1.9,3.3c-1,0.6-1.9,0.1-1.9-1.1c0.1-1.3,0.8-2.5,1.9-3.3
			C413.3,324.8,414.2,325.2,414.2,326.4z"/>
		<path class="st2" d="M405.3,330.3c0,0.2,0.1,0.3,0.1,0.5c-0.1,1.3-0.8,2.5-1.9,3.3c-0.2,0.1-0.3,0.2-0.5,0.2l-0.2,0.3l-0.9-0.5
			l0,0c-0.4-0.3-0.6-0.7-0.6-1.2c0.1-1.3,0.8-2.5,1.9-3.3c0.4-0.3,0.9-0.3,1.3-0.1l0,0l1,0.6L405.3,330.3z"/>
		<path class="st13" d="M405.3,330.3c0,0.2,0.1,0.3,0.1,0.5c-0.1,1.3-0.8,2.5-1.9,3.3c-0.2,0.1-0.3,0.2-0.5,0.2l-0.2,0.3l-0.9-0.5
			l0,0c-0.4-0.3-0.6-0.7-0.6-1.2c0.1-1.3,0.8-2.5,1.9-3.3c0.4-0.3,0.9-0.3,1.3-0.1l0,0l1,0.6L405.3,330.3z"/>
		<path class="st2" d="M406,331.2c-0.1,1.3-0.8,2.5-1.9,3.3c-1,0.6-1.9,0.1-1.9-1.1c0.1-1.3,0.8-2.5,1.9-3.3
			C405.2,329.5,406,330,406,331.2z"/>
		<polygon class="st7" points="361,370.7 361,366 304.1,333.1 304.1,337.8 		"/>
		<polygon class="st5" points="361,366 361,370.7 421.9,335.5 421.9,330.8 		"/>
		<path class="st2" d="M342.6,344.9c0,0.2-0.1,0.3-0.1,0.5c0.1,1.3,0.8,2.5,1.9,3.3c0.2,0.1,0.4,0.2,0.5,0.2l0.2,0.3l0.9-0.5l0,0
			c0.4-0.3,0.6-0.7,0.5-1.2c-0.1-1.3-0.8-2.5-1.9-3.3c-0.4-0.3-0.9-0.3-1.3-0.1l0,0l-1,0.6L342.6,344.9z"/>
		<path class="st14" d="M342.6,344.9c0,0.2-0.1,0.3-0.1,0.5c0.1,1.3,0.8,2.5,1.9,3.3c0.2,0.1,0.4,0.2,0.5,0.2l0.2,0.3l0.9-0.5l0,0
			c0.4-0.3,0.6-0.7,0.5-1.2c-0.1-1.3-0.8-2.5-1.9-3.3c-0.4-0.3-0.9-0.3-1.3-0.1l0,0l-1,0.6L342.6,344.9z"/>
		<path class="st2" d="M341.9,345.8c0.1,1.3,0.8,2.5,1.9,3.3c1,0.6,1.9,0.1,1.9-1.1c-0.1-1.3-0.8-2.5-1.9-3.3
			C342.7,344.1,341.9,344.6,341.9,345.8z"/>
		<path class="st13" d="M341.9,345.8c0.1,1.3,0.8,2.5,1.9,3.3c1,0.6,1.9,0.1,1.9-1.1c-0.1-1.3-0.8-2.5-1.9-3.3
			C342.7,344.1,341.9,344.6,341.9,345.8z"/>
		<path class="st2" d="M350.8,349.7c0,0.2-0.1,0.3-0.1,0.5c0.1,1.3,0.8,2.5,1.9,3.3c0.2,0.1,0.4,0.2,0.5,0.2l0.2,0.3l0.9-0.5l0,0
			c0.4-0.3,0.6-0.7,0.6-1.2c-0.1-1.3-0.8-2.5-1.9-3.3c-0.4-0.3-0.9-0.3-1.3-0.1l0,0l-1,0.6L350.8,349.7z"/>
		<path class="st14" d="M350.8,349.7c0,0.2-0.1,0.3-0.1,0.5c0.1,1.3,0.8,2.5,1.9,3.3c0.2,0.1,0.4,0.2,0.5,0.2l0.2,0.3l0.9-0.5l0,0
			c0.4-0.3,0.6-0.7,0.6-1.2c-0.1-1.3-0.8-2.5-1.9-3.3c-0.4-0.3-0.9-0.3-1.3-0.1l0,0l-1,0.6L350.8,349.7z"/>
		<path class="st2" d="M350.1,350.5c0.1,1.3,0.8,2.5,1.9,3.3c1,0.6,1.9,0.1,1.9-1.1c-0.1-1.3-0.8-2.5-1.9-3.3
			C350.9,348.8,350.1,349.3,350.1,350.5z"/>
		<path class="st13" d="M350.1,350.5c0.1,1.3,0.8,2.5,1.9,3.3c1,0.6,1.9,0.1,1.9-1.1c-0.1-1.3-0.8-2.5-1.9-3.3
			C350.9,348.8,350.1,349.3,350.1,350.5z"/>
		<polygon class="st2" points="361,244 426,281.5 361,319.1 296,281.5 		"/>
		<polygon class="st15" points="361,244 426,281.5 361,319.1 296,281.5 		"/>
		<polygon class="st10" points="361,244 426,281.5 361,319.1 296,281.5 		"/>
		<polygon class="st10" points="421.9,279.2 426,281.5 361,319.1 361,314.4 		"/>
		<polygon class="st2" points="296,281.5 361,319.1 361,337.8 296,300.3 		"/>
		<polygon class="st11" points="296,281.5 361,319.1 361,337.8 296,300.3 		"/>
		<path class="st2" d="M300.1,291.1v4.4c0.1,1.5,0.9,2.9,2.2,3.8l32.2,18.6c1.2,0.7,2.2,0.1,2.2-1.2v-4.4c-0.1-1.5-0.9-2.9-2.2-3.8
			l-32.2-18.6C301.1,289.1,300.1,289.7,300.1,291.1z"/>
		<path class="st8" d="M302.8,293.3l0.5,0.3c0.2,0.2,0.4,0.4,0.4,0.8v2.1c0,0.2-0.2,0.4-0.4,0.2l-0.5-0.3c-0.2-0.2-0.4-0.4-0.4-0.8
			v-2.1C302.4,293.3,302.6,293.2,302.8,293.3z"/>
		<path class="st7" d="M305,294.6l0.5,0.3c0.2,0.2,0.4,0.4,0.4,0.8v2.1c0,0.2-0.2,0.4-0.4,0.2l-0.5-0.3c-0.2-0.2-0.4-0.4-0.4-0.8
			v-2.1C304.6,294.5,304.7,294.4,305,294.6z"/>
		<path class="st8" d="M307.2,295.8l0.5,0.3c0.2,0.2,0.4,0.4,0.4,0.8v2.1c0,0.2-0.2,0.4-0.4,0.2l-0.5-0.3c-0.2-0.2-0.4-0.4-0.4-0.8
			v-2.1C306.7,295.8,306.9,295.7,307.2,295.8z"/>
		<path class="st8" d="M309.4,297.1l0.5,0.3c0.3,0.2,0.4,0.4,0.4,0.8v2.1c0,0.2-0.2,0.4-0.4,0.2l-0.5-0.3c-0.2-0.2-0.4-0.4-0.4-0.8
			v-2.1C308.9,297.1,309.1,297,309.4,297.1z"/>
		<path class="st8" d="M311.5,298.4l0.5,0.3c0.3,0.2,0.4,0.4,0.4,0.8v2.1c0,0.2-0.2,0.4-0.4,0.2l-0.5-0.3c-0.3-0.2-0.4-0.4-0.4-0.8
			v-2.1C311.1,298.3,311.3,298.2,311.5,298.4z"/>
		<path class="st7" d="M313.8,299.6l0.5,0.3c0.3,0.2,0.4,0.4,0.4,0.8v2.1c0,0.2-0.2,0.4-0.4,0.2l-0.5-0.3c-0.3-0.2-0.4-0.4-0.4-0.8
			v-2.1C313.3,299.6,313.5,299.5,313.8,299.6z"/>
		<path class="st7" d="M315.9,300.9l0.5,0.3c0.2,0.2,0.4,0.4,0.4,0.8v2.1c0,0.2-0.2,0.4-0.4,0.2l-0.5-0.3c-0.2-0.2-0.4-0.4-0.4-0.8
			v-2.1C315.5,300.8,315.7,300.7,315.9,300.9z"/>
		<path class="st8" d="M318.1,302.1l0.5,0.3c0.2,0.2,0.4,0.4,0.4,0.8v2.1c0,0.2-0.2,0.4-0.4,0.2l-0.5-0.3c-0.2-0.2-0.4-0.4-0.4-0.8
			v-2.1C317.7,302.1,317.9,302,318.1,302.1z"/>
		<path class="st7" d="M320.3,303.4l0.5,0.3c0.2,0.2,0.4,0.4,0.4,0.8v2.1c0,0.2-0.2,0.4-0.4,0.2l-0.5-0.3c-0.2-0.2-0.4-0.4-0.4-0.8
			v-2.1C319.9,303.4,320.1,303.2,320.3,303.4z"/>
		<path class="st8" d="M322.5,304.6l0.5,0.3c0.2,0.2,0.4,0.4,0.4,0.8v2.1c0,0.2-0.2,0.4-0.4,0.2l-0.5-0.3c-0.2-0.2-0.4-0.4-0.4-0.8
			v-2.1C322.1,304.6,322.3,304.5,322.5,304.6z"/>
		<path class="st8" d="M324.7,306l0.5,0.3c0.2,0.2,0.4,0.4,0.4,0.8v2.1c0,0.2-0.2,0.4-0.4,0.2l-0.5-0.3c-0.3-0.2-0.4-0.4-0.4-0.8
			v-2.1C324.2,305.9,324.4,305.8,324.7,306z"/>
		<path class="st8" d="M326.9,307.2l0.5,0.3c0.3,0.2,0.4,0.4,0.4,0.8v2.1c0,0.2-0.2,0.4-0.4,0.2l-0.5-0.3c-0.3-0.2-0.4-0.4-0.4-0.8
			v-2.1C326.4,307.1,326.6,307,326.9,307.2z"/>
		<path class="st7" d="M329.1,308.4l0.5,0.3c0.2,0.2,0.4,0.4,0.4,0.8v2.1c0,0.2-0.2,0.4-0.4,0.2l-0.5-0.3c-0.2-0.2-0.4-0.4-0.4-0.8
			v-2.1C328.6,308.4,328.8,308.3,329.1,308.4z"/>
		<path class="st8" d="M331.2,309.8l0.5,0.3c0.2,0.2,0.4,0.4,0.4,0.8v2.1c0,0.2-0.2,0.4-0.4,0.2l-0.5-0.3c-0.3-0.2-0.4-0.4-0.4-0.8
			V310C330.8,309.7,331,309.6,331.2,309.8z"/>
		<path class="st8" d="M333.4,311l0.5,0.3c0.2,0.2,0.4,0.4,0.4,0.8v2.1c0,0.2-0.2,0.4-0.4,0.2l-0.5-0.3c-0.2-0.2-0.4-0.4-0.4-0.8
			v-2.1C333,310.9,333.2,310.8,333.4,311z"/>
		<polygon class="st2" points="361,319.1 426,281.5 426,300.3 361,337.8 		"/>
		<polygon class="st12" points="361,319.1 426,281.5 426,300.3 361,337.8 		"/>
		<g class="st9">
			<path class="st4" d="M417.9,293.5v4.4c-0.1,1.5-0.9,2.9-2.2,3.8l-16,9.2c-1.2,0.7-2.2,0.1-2.2-1.2v-4.4c0.1-1.5,0.9-2.9,2.2-3.8
				l16-9.2C416.9,291.5,417.9,292.1,417.9,293.5z"/>
		</g>
		<path class="st2" d="M413.5,297.5c0,0.2,0.1,0.3,0.1,0.5c-0.1,1.3-0.8,2.5-1.9,3.3c-0.2,0.1-0.4,0.2-0.5,0.2l-0.2,0.3l-0.9-0.5
			l0,0c-0.4-0.3-0.6-0.7-0.5-1.2c0.1-1.3,0.8-2.5,1.9-3.3c0.4-0.3,0.9-0.3,1.3-0.1l0,0l1,0.6L413.5,297.5z"/>
		<path class="st13" d="M413.5,297.5c0,0.2,0.1,0.3,0.1,0.5c-0.1,1.3-0.8,2.5-1.9,3.3c-0.2,0.1-0.4,0.2-0.5,0.2l-0.2,0.3l-0.9-0.5
			l0,0c-0.4-0.3-0.6-0.7-0.5-1.2c0.1-1.3,0.8-2.5,1.9-3.3c0.4-0.3,0.9-0.3,1.3-0.1l0,0l1,0.6L413.5,297.5z"/>
		<path class="st2" d="M414.2,298.3c-0.1,1.3-0.8,2.5-1.9,3.3c-1,0.6-1.9,0.1-1.9-1.1c0.1-1.3,0.8-2.5,1.9-3.2
			C413.3,296.7,414.2,297.1,414.2,298.3z"/>
		<path class="st2" d="M405.3,302.2c0,0.2,0.1,0.3,0.1,0.5c-0.1,1.3-0.8,2.5-1.9,3.3c-0.2,0.1-0.3,0.2-0.5,0.2l-0.2,0.3l-0.9-0.5
			l0,0c-0.4-0.3-0.6-0.7-0.6-1.2c0.1-1.3,0.8-2.5,1.9-3.3c0.4-0.3,0.9-0.3,1.3-0.1l0,0l1,0.6L405.3,302.2z"/>
		<path class="st13" d="M405.3,302.2c0,0.2,0.1,0.3,0.1,0.5c-0.1,1.3-0.8,2.5-1.9,3.3c-0.2,0.1-0.3,0.2-0.5,0.2l-0.2,0.3l-0.9-0.5
			l0,0c-0.4-0.3-0.6-0.7-0.6-1.2c0.1-1.3,0.8-2.5,1.9-3.3c0.4-0.3,0.9-0.3,1.3-0.1l0,0l1,0.6L405.3,302.2z"/>
		<path class="st2" d="M406,303.1c-0.1,1.3-0.8,2.5-1.9,3.3c-1,0.6-1.9,0.1-1.9-1.1c0.1-1.3,0.8-2.5,1.9-3.3
			C405.2,301.4,406,301.9,406,303.1z"/>
		<polygon class="st7" points="361,342.5 361,337.8 304.1,305 304.1,309.7 		"/>
		<polygon class="st5" points="361,337.8 361,342.5 421.9,307.3 421.9,302.6 		"/>
		<path class="st2" d="M342.6,316.8c0,0.2-0.1,0.3-0.1,0.5c0.1,1.3,0.8,2.5,1.9,3.3c0.2,0.1,0.4,0.2,0.5,0.2l0.2,0.3l0.9-0.5l0,0
			c0.4-0.3,0.6-0.7,0.5-1.2c-0.1-1.3-0.8-2.5-1.9-3.3c-0.4-0.3-0.9-0.3-1.3-0.1l0,0l-1,0.6L342.6,316.8z"/>
		<path class="st14" d="M342.6,316.8c0,0.2-0.1,0.3-0.1,0.5c0.1,1.3,0.8,2.5,1.9,3.3c0.2,0.1,0.4,0.2,0.5,0.2l0.2,0.3l0.9-0.5l0,0
			c0.4-0.3,0.6-0.7,0.5-1.2c-0.1-1.3-0.8-2.5-1.9-3.3c-0.4-0.3-0.9-0.3-1.3-0.1l0,0l-1,0.6L342.6,316.8z"/>
		<path class="st2" d="M341.9,317.7c0.1,1.3,0.8,2.5,1.9,3.3c1,0.6,1.9,0.1,1.9-1.1c-0.1-1.3-0.8-2.5-1.9-3.3
			C342.7,316,341.9,316.5,341.9,317.7z"/>
		<path class="st13" d="M341.9,317.7c0.1,1.3,0.8,2.5,1.9,3.3c1,0.6,1.9,0.1,1.9-1.1c-0.1-1.3-0.8-2.5-1.9-3.3
			C342.7,316,341.9,316.5,341.9,317.7z"/>
		<path class="st2" d="M350.8,321.5c0,0.2-0.1,0.3-0.1,0.5c0.1,1.3,0.8,2.5,1.9,3.3c0.2,0.1,0.4,0.2,0.5,0.2l0.2,0.3l0.9-0.5l0,0
			c0.4-0.3,0.6-0.7,0.6-1.2c-0.1-1.3-0.8-2.5-1.9-3.3c-0.4-0.3-0.9-0.3-1.3-0.1l0,0l-1,0.6L350.8,321.5z"/>
		<path class="st14" d="M350.8,321.5c0,0.2-0.1,0.3-0.1,0.5c0.1,1.3,0.8,2.5,1.9,3.3c0.2,0.1,0.4,0.2,0.5,0.2l0.2,0.3l0.9-0.5l0,0
			c0.4-0.3,0.6-0.7,0.6-1.2c-0.1-1.3-0.8-2.5-1.9-3.3c-0.4-0.3-0.9-0.3-1.3-0.1l0,0l-1,0.6L350.8,321.5z"/>
		<path class="st2" d="M350.1,322.4c0.1,1.3,0.8,2.5,1.9,3.3c1,0.6,1.9,0.1,1.9-1.1c-0.1-1.3-0.8-2.5-1.9-3.3
			C350.9,320.7,350.1,321.2,350.1,322.4z"/>
		<path class="st13" d="M350.1,322.4c0.1,1.3,0.8,2.5,1.9,3.3c1,0.6,1.9,0.1,1.9-1.1c-0.1-1.3-0.8-2.5-1.9-3.3
			C350.9,320.7,350.1,321.2,350.1,322.4z"/>
		<path class="st2" d="M426,256.4l0,15.8l-64.9,37.5l0,0L296,272.2v-15.8c0.1-1.8,1.1-3.5,2.6-4.5l59.8-34.5c1.6-0.8,3.6-0.8,5.2,0
			l59.8,34.5C424.9,252.9,425.9,254.6,426,256.4z"/>
		<path class="st12" d="M426,256.4l0,15.8l-64.9,37.5l0,0L296,272.2v-15.8c0.1-1.8,1.1-3.5,2.6-4.5l59.8-34.5c1.6-0.8,3.6-0.8,5.2,0
			l59.8,34.5C424.9,252.9,425.9,254.6,426,256.4z"/>
		<g class="st9">
			<path class="st4" d="M417.9,265.2v4.4c-0.1,1.5-0.9,2.9-2.2,3.8l-16,9.2c-1.2,0.7-2.2,0.1-2.2-1.2V277c0.1-1.5,0.9-2.9,2.2-3.8
				l16-9.2C416.9,263.4,417.9,263.9,417.9,265.2z"/>
		</g>
		<path class="st2" d="M413.5,269.4c0,0.2,0.1,0.3,0.1,0.5c-0.1,1.3-0.8,2.5-1.9,3.3c-0.2,0.1-0.3,0.2-0.5,0.2l-0.2,0.3l-0.9-0.5
			l0,0c-0.4-0.3-0.6-0.7-0.5-1.2c0.1-1.3,0.8-2.5,1.9-3.3c0.4-0.3,0.9-0.3,1.3-0.1l0,0l1,0.6L413.5,269.4z"/>
		<path class="st13" d="M413.5,269.4c0,0.2,0.1,0.3,0.1,0.5c-0.1,1.3-0.8,2.5-1.9,3.3c-0.2,0.1-0.3,0.2-0.5,0.2l-0.2,0.3l-0.9-0.5
			l0,0c-0.4-0.3-0.6-0.7-0.5-1.2c0.1-1.3,0.8-2.5,1.9-3.3c0.4-0.3,0.9-0.3,1.3-0.1l0,0l1,0.6L413.5,269.4z"/>
		<path class="st2" d="M414.2,270.2c-0.1,1.3-0.8,2.5-1.9,3.3c-1,0.6-1.9,0.1-1.9-1.1c0.1-1.3,0.8-2.5,1.9-3.3
			C413.3,268.5,414.2,269,414.2,270.2z"/>
		<path class="st2" d="M405.3,274c0,0.2,0.1,0.3,0.1,0.5c-0.1,1.3-0.8,2.5-1.9,3.3c-0.2,0.1-0.3,0.2-0.5,0.2l-0.2,0.3l-0.9-0.5l0,0
			c-0.4-0.3-0.6-0.7-0.6-1.2c0.1-1.3,0.8-2.5,1.9-3.3c0.4-0.3,0.9-0.3,1.3-0.1l0,0l1,0.6L405.3,274z"/>
		<path class="st13" d="M405.3,274c0,0.2,0.1,0.3,0.1,0.5c-0.1,1.3-0.8,2.5-1.9,3.3c-0.2,0.1-0.3,0.2-0.5,0.2l-0.2,0.3l-0.9-0.5l0,0
			c-0.4-0.3-0.6-0.7-0.6-1.2c0.1-1.3,0.8-2.5,1.9-3.3c0.4-0.3,0.9-0.3,1.3-0.1l0,0l1,0.6L405.3,274z"/>
		<path class="st2" d="M406,274.9c-0.1,1.3-0.8,2.5-1.9,3.3c-1,0.6-1.9,0.1-1.9-1.1c0.1-1.3,0.8-2.5,1.9-3.3
			C405.2,273.2,406,273.7,406,274.9z"/>
		<path class="st2" d="M358.5,289.4l-59.8-34.5c-1.3-0.7-1.4-1.8-0.5-2.7c-1.3,1-2,2.5-2.1,4.2v15.8l65,37.5V290
			C360.2,290.1,359.3,289.9,358.5,289.4z"/>
		<path class="st11" d="M358.5,289.4l-59.8-34.5c-1.3-0.7-1.4-1.8-0.5-2.7c-1.3,1-2,2.5-2.1,4.2v15.8l65,37.5V290
			C360.2,290.1,359.3,289.9,358.5,289.4z"/>
		<path class="st2" d="M300.1,262.9v4.4c0.1,1.5,0.9,2.9,2.2,3.8l32.2,18.6c1.2,0.7,2.2,0.1,2.2-1.2V284c-0.1-1.5-0.9-2.9-2.2-3.8
			l-32.2-18.6C301.1,261,300.1,261.6,300.1,262.9z"/>
		<path class="st7" d="M302.4,265.2c0.1-0.1,0.3-0.1,0.4-0.1l0.5,0.3c0.3,0.2,0.4,0.4,0.4,0.8v2.1c0,0.2-0.2,0.4-0.4,0.2l-0.5-0.3
			c-0.2-0.2-0.4-0.4-0.4-0.8v-2.1C302.4,265.3,302.4,265.3,302.4,265.2z"/>
		<path class="st8" d="M305,266.4l0.5,0.3c0.2,0.2,0.4,0.4,0.4,0.8v2.1c0,0.2-0.2,0.4-0.4,0.2l-0.5-0.3c-0.2-0.2-0.4-0.4-0.4-0.8
			v-2.1C304.6,266.4,304.7,266.3,305,266.4z"/>
		<path class="st7" d="M307.2,267.7l0.5,0.3c0.2,0.2,0.4,0.4,0.4,0.8v2.1c0,0.2-0.2,0.4-0.4,0.2l-0.5-0.3c-0.2-0.2-0.4-0.4-0.4-0.8
			v-2.1C306.7,267.6,306.9,267.5,307.2,267.7z"/>
		<path class="st7" d="M309.4,269l0.5,0.3c0.2,0.2,0.4,0.4,0.4,0.8v2.1c0,0.2-0.2,0.4-0.4,0.2l-0.5-0.3c-0.3-0.2-0.4-0.4-0.4-0.8
			v-2.1C308.9,268.9,309.1,268.8,309.4,269z"/>
		<path class="st7" d="M311.5,270.2l0.5,0.3c0.3,0.2,0.4,0.4,0.4,0.8v2.1c0,0.1,0,0.2-0.1,0.2c-0.1,0.1-0.3,0.1-0.4,0l-0.5-0.3
			c-0.3-0.2-0.4-0.4-0.4-0.8v-2.1C311.1,270.2,311.3,270.1,311.5,270.2z"/>
		<path class="st8" d="M313.4,271.5c0.1-0.1,0.3-0.1,0.4,0l0.5,0.3c0.3,0.2,0.4,0.4,0.4,0.8v2.1c0,0.1,0,0.2-0.1,0.2
			c-0.1,0.1-0.3,0.1-0.4,0l-0.5-0.3c-0.3-0.2-0.4-0.4-0.4-0.8v-2.1C313.3,271.6,313.3,271.6,313.4,271.5z"/>
		<path class="st8" d="M315.6,272.8c0.1-0.1,0.3-0.1,0.4-0.1l0.5,0.3c0.3,0.2,0.4,0.4,0.4,0.8v2.1c0,0.2-0.2,0.4-0.4,0.2l-0.5-0.3
			c-0.2-0.2-0.4-0.4-0.4-0.8V273C315.5,272.9,315.5,272.9,315.6,272.8z"/>
		<path class="st7" d="M318.1,274l0.5,0.2c0.3,0.2,0.4,0.4,0.4,0.8v2.1c0,0.2-0.2,0.4-0.4,0.2l-0.5-0.3c-0.2-0.2-0.4-0.4-0.4-0.8
			v-2.1C317.7,274,317.9,273.9,318.1,274z"/>
		<path class="st8" d="M320.3,275.2l0.5,0.3c0.2,0.2,0.4,0.4,0.4,0.8v2.1c0,0.2-0.2,0.4-0.4,0.2l-0.5-0.3c-0.2-0.2-0.4-0.4-0.4-0.8
			v-2.1C319.9,275.2,320.1,275.1,320.3,275.2z"/>
		<path class="st7" d="M322.5,276.5l0.5,0.3c0.2,0.2,0.4,0.4,0.4,0.8v2.1c0,0.2-0.2,0.4-0.4,0.2l-0.5-0.3c-0.3-0.2-0.4-0.4-0.4-0.8
			v-2.1C322.1,276.5,322.3,276.4,322.5,276.5z"/>
		<path class="st7" d="M324.7,277.8l0.5,0.3c0.2,0.2,0.4,0.4,0.4,0.8v2.1c0,0.1,0,0.1-0.1,0.2c-0.1,0.1-0.3,0.1-0.4,0.1l-0.5-0.3
			c-0.3-0.2-0.4-0.4-0.4-0.8V278C324.2,277.7,324.4,277.6,324.7,277.8z"/>
		<path class="st7" d="M326.5,279.1c0.1-0.1,0.3-0.1,0.4,0l0.5,0.3c0.3,0.2,0.4,0.4,0.4,0.8v2.1c0,0.1,0,0.2-0.1,0.2
			c-0.1,0.1-0.3,0.1-0.4,0l-0.5-0.3c-0.3-0.2-0.4-0.4-0.4-0.8v-2.1C326.4,279.2,326.4,279.1,326.5,279.1z"/>
		<path class="st8" d="M329.1,280.3l0.5,0.3c0.2,0.2,0.4,0.4,0.4,0.8v2.1c0,0.2-0.2,0.4-0.4,0.2l-0.5-0.3c-0.2-0.2-0.4-0.4-0.4-0.8
			v-2.1C328.6,280.3,328.8,280.1,329.1,280.3z"/>
		<path class="st7" d="M331.2,281.5l0.5,0.3c0.3,0.2,0.4,0.4,0.4,0.8v2.1c0,0.2-0.2,0.4-0.4,0.2l-0.5-0.3c-0.2-0.2-0.4-0.4-0.4-0.8
			v-2.1C330.8,281.5,331,281.4,331.2,281.5z"/>
		<path class="st7" d="M333.4,282.8l0.5,0.3c0.2,0.2,0.4,0.4,0.4,0.8v2.1c0,0.2-0.2,0.4-0.4,0.2l-0.5-0.3c-0.2-0.2-0.4-0.4-0.4-0.8
			v-2.1C333,282.8,333.2,282.7,333.4,282.8z"/>
		<path class="st2" d="M298.6,251.9l59.8-34.5c1.6-0.8,3.6-0.8,5.2,0l59.8,34.5c1.4,0.8,1.4,2.2,0,3l-59.8,34.5
			c-1.6,0.8-3.6,0.8-5.2,0l-59.8-34.5C297.2,254.1,297.2,252.7,298.6,251.9z"/>
		<path class="st16" d="M298.6,251.9l59.8-34.5c1.6-0.8,3.6-0.8,5.2,0l59.8,34.5c1.4,0.8,1.4,2.2,0,3l-59.8,34.5
			c-1.6,0.8-3.6,0.8-5.2,0l-59.8-34.5C297.2,254.1,297.2,252.7,298.6,251.9z"/>
		<polygon class="st7" points="361,314.4 361,309.7 304.1,276.9 304.1,281.5 		"/>
		<polygon class="st5" points="361,309.7 361,314.4 421.9,279.2 421.9,274.5 		"/>
		<path class="st2" d="M342.6,288.7c0,0.2-0.1,0.3-0.1,0.5c0.1,1.3,0.8,2.5,1.9,3.3c0.2,0.1,0.4,0.2,0.5,0.2l0.2,0.3l0.9-0.5l0,0
			c0.4-0.3,0.6-0.7,0.5-1.2c-0.1-1.3-0.8-2.5-1.9-3.3c-0.4-0.3-0.9-0.3-1.3-0.1l0,0l-1,0.6L342.6,288.7z"/>
		<path class="st14" d="M342.6,288.7c0,0.2-0.1,0.3-0.1,0.5c0.1,1.3,0.8,2.5,1.9,3.3c0.2,0.1,0.4,0.2,0.5,0.2l0.2,0.3l0.9-0.5l0,0
			c0.4-0.3,0.6-0.7,0.5-1.2c-0.1-1.3-0.8-2.5-1.9-3.3c-0.4-0.3-0.9-0.3-1.3-0.1l0,0l-1,0.6L342.6,288.7z"/>
		<path class="st2" d="M341.9,289.5c0.1,1.3,0.8,2.5,1.9,3.3c1,0.6,1.9,0.1,1.9-1.1c-0.1-1.3-0.8-2.5-1.9-3.2
			C342.7,287.8,341.9,288.3,341.9,289.5z"/>
		<path class="st13" d="M341.9,289.5c0.1,1.3,0.8,2.5,1.9,3.3c1,0.6,1.9,0.1,1.9-1.1c-0.1-1.3-0.8-2.5-1.9-3.2
			C342.7,287.8,341.9,288.3,341.9,289.5z"/>
		<path class="st2" d="M350.8,293.3c0,0.2-0.1,0.3-0.1,0.5c0.1,1.3,0.8,2.5,1.9,3.3c0.2,0.1,0.4,0.2,0.5,0.2l0.2,0.3l0.9-0.5l0,0
			c0.4-0.3,0.6-0.7,0.6-1.2c-0.1-1.3-0.8-2.5-1.9-3.3c-0.4-0.3-0.9-0.3-1.3-0.1l0,0l-1,0.6L350.8,293.3z"/>
		<path class="st14" d="M350.8,293.3c0,0.2-0.1,0.3-0.1,0.5c0.1,1.3,0.8,2.5,1.9,3.3c0.2,0.1,0.4,0.2,0.5,0.2l0.2,0.3l0.9-0.5l0,0
			c0.4-0.3,0.6-0.7,0.6-1.2c-0.1-1.3-0.8-2.5-1.9-3.3c-0.4-0.3-0.9-0.3-1.3-0.1l0,0l-1,0.6L350.8,293.3z"/>
		<path class="st2" d="M350.1,294.2c0.1,1.3,0.8,2.5,1.9,3.3c1,0.6,1.9,0.1,1.9-1.1c-0.1-1.3-0.8-2.5-1.9-3.3
			C350.9,292.5,350.1,293,350.1,294.2z"/>
		<path class="st13" d="M350.1,294.2c0.1,1.3,0.8,2.5,1.9,3.3c1,0.6,1.9,0.1,1.9-1.1c-0.1-1.3-0.8-2.5-1.9-3.3
			C350.9,292.5,350.1,293,350.1,294.2z"/>
	</g>
</g>
<g id="freepik--speech-bubble--inject-97">
	<path class="st2" d="M193.2,159.7L193.2,159.7c0.1-0.1,0.3-0.2,0.3-0.3l4.9-8.5v-6.6l-11.4-6.6v6.6l3.7,10.8l-4.6,8.7L193.2,159.7z
		"/>
	<path class="st13" d="M193.2,159.7L193.2,159.7c0.1-0.1,0.3-0.2,0.3-0.3l4.9-8.5v-6.6l-11.4-6.6v6.6l3.7,10.8l-4.6,8.7L193.2,159.7
		z"/>
	<path class="st2" d="M158.8,132.3c0.1,2.4,1.4,4.6,3.4,5.9l17.6,10.2l5.2,14.9c0.1,0.2,0.2,0.3,0.3,0.4c0.4,0.2,0.8,0.1,1-0.3
		l4.9-8.5l13.8,8c2.2,1.1,4.7,1.1,6.9,0l2.8-1.6c2-1.3,3.3-3.5,3.4-5.9v-47c-0.1-2.4-1.4-4.6-3.4-5.9l-42.8-24.7
		c-2.2-1.1-4.7-1.1-6.9,0l-2.8,1.6c-2,1.3-3.3,3.5-3.4,5.9V132.3z"/>
	<path class="st13" d="M218.1,108.4c0-1.2-0.4-2.4-1-3.4l-9.6,5.6c0.6,1,1,2.2,1,3.4v47c0,1.9-1.2,2.9-2.8,2.2
		c2,0.8,4.3,0.7,6.3-0.3l2.8-1.6c2-1.3,3.3-3.5,3.4-5.9V108.4z"/>
	<path class="st12" d="M162.2,79.4l2.8-1.6c2.2-1.1,4.7-1.1,6.9,0l42.8,24.7c1,0.6,1.8,1.5,2.4,2.6l-9.7,5.6c-0.6-1-1.4-1.9-2.4-2.6
		l-42.8-24.7c-1.6-0.9-2.9-0.5-3.3,1C159.3,82.3,160.5,80.5,162.2,79.4z"/>
	<polygon class="st4" points="176.3,121.1 176.3,136.9 190.8,145.2 190.8,129.4 198.6,133.9 183.6,103.6 168.6,116.6 	"/>
</g>
<g id="freepik--Cloud--inject-97">
	<path class="st2" d="M360.5,191.3L360.5,191.3c0,0.1,0.1,0.2,0.2,0.2c0.2,0.1,0.5,0.1,0.8,0c0.1,0,0.2-0.1,0.2-0.2l0,0v-6.7l0,0
		c0-0.1-0.1-0.2-0.2-0.2c-0.2-0.1-0.5-0.1-0.8,0c-0.1,0-0.2,0.1-0.2,0.2V191.3z"/>
	<path class="st2" d="M360.5,196.6L360.5,196.6c0,0.1,0.1,0.2,0.2,0.2c0.2,0.1,0.5,0.1,0.8,0c0.1,0,0.2-0.1,0.2-0.2l0,0v-3.2l0,0
		c0-0.1-0.1-0.2-0.2-0.2c-0.2-0.1-0.5-0.1-0.8,0c-0.1,0-0.2,0.1-0.2,0.2V196.6z"/>
	<path class="st2" d="M360.5,201.9L360.5,201.9c0,0.1,0.1,0.2,0.2,0.2c0.2,0.1,0.5,0.1,0.8,0c0.1,0,0.2-0.1,0.2-0.2l0,0v-3.2l0,0
		c0-0.1-0.1-0.2-0.2-0.2c-0.2-0.1-0.5-0.1-0.8,0c-0.1,0-0.1,0.1-0.2,0.2V201.9z"/>
	<path class="st2" d="M360.5,207.2L360.5,207.2c0,0.1,0.1,0.2,0.2,0.2c0.2,0.1,0.5,0.1,0.8,0c0.1,0,0.2-0.1,0.2-0.2l0,0V204l0,0
		c0-0.1-0.1-0.2-0.2-0.2c-0.2-0.1-0.5-0.1-0.8,0c-0.1,0-0.1,0.1-0.2,0.2V207.2z"/>
	<path class="st2" d="M360.5,212.5L360.5,212.5c0,0.1,0.1,0.2,0.2,0.2c0.2,0.1,0.5,0.1,0.8,0c0.1,0,0.2-0.1,0.2-0.2l0,0v-3.2l0,0
		c0-0.1-0.1-0.2-0.2-0.2c-0.2-0.1-0.5-0.1-0.8,0c-0.1,0-0.2,0.1-0.2,0.2V212.5z"/>
	<path class="st2" d="M360.5,217.8L360.5,217.8c0,0.1,0.1,0.2,0.2,0.2c0.2,0.1,0.5,0.1,0.8,0c0.1,0,0.2-0.1,0.2-0.2l0,0v-3.2l0,0
		c0-0.1-0.1-0.2-0.2-0.2c-0.2-0.1-0.5-0.1-0.8,0c-0.1,0-0.2,0.1-0.2,0.2V217.8z"/>
	<path class="st2" d="M360.5,223.1L360.5,223.1c0,0.1,0.1,0.2,0.2,0.2c0.2,0.1,0.5,0.1,0.8,0c0.1,0,0.2-0.1,0.2-0.2l0,0v-3.2l0,0
		c0-0.1-0.1-0.2-0.2-0.2c-0.2-0.1-0.5-0.1-0.8,0c-0.1,0-0.1,0.1-0.2,0.2V223.1z"/>
	<path class="st2" d="M360.5,228.4L360.5,228.4c0,0.1,0.1,0.2,0.2,0.2c0.2,0.1,0.5,0.1,0.8,0c0.1,0,0.2-0.1,0.2-0.2l0,0v-3.2l0,0
		c0-0.1-0.1-0.2-0.2-0.2c-0.2-0.1-0.5-0.1-0.8,0c-0.1,0-0.1,0.1-0.2,0.2V228.4z"/>
	<path class="st2" d="M360.5,233.7L360.5,233.7c0,0.1,0.1,0.2,0.2,0.2c0.2,0.1,0.5,0.1,0.8,0c0.1,0,0.2-0.1,0.2-0.2l0,0v-3.2l0,0
		c0-0.1-0.1-0.2-0.2-0.2c-0.2-0.1-0.5-0.1-0.8,0c-0.1,0-0.2,0.1-0.2,0.2V233.7z"/>
	<path class="st2" d="M360.5,239L360.5,239c0,0.1,0.1,0.2,0.2,0.2c0.2,0.1,0.5,0.1,0.8,0c0.1,0,0.2-0.1,0.2-0.2l0,0v-3.2l0,0
		c0-0.1-0.1-0.2-0.2-0.2c-0.2-0.1-0.5-0.1-0.8,0c-0.1,0-0.2,0.1-0.2,0.2V239z"/>
	<path class="st2" d="M360.5,244.3L360.5,244.3c0,0.1,0.1,0.2,0.2,0.2c0.2,0.1,0.5,0.1,0.8,0c0.1,0,0.2-0.1,0.2-0.2l0,0v-3.2l0,0
		c0-0.1-0.1-0.2-0.2-0.2c-0.2-0.1-0.5-0.1-0.8,0c-0.1,0-0.1,0.1-0.2,0.2V244.3z"/>
	<path class="st2" d="M360.5,249.6L360.5,249.6c0,0.1,0.1,0.2,0.2,0.2c0.2,0.1,0.5,0.1,0.8,0c0.1,0,0.2-0.1,0.2-0.2l0,0v-3.2l0,0
		c0-0.1-0.1-0.2-0.2-0.2c-0.2-0.1-0.5-0.1-0.8,0c-0.1,0-0.2,0.1-0.2,0.2V249.6z"/>
	<path class="st2" d="M360.5,254.9L360.5,254.9c0,0.1,0.1,0.2,0.2,0.2c0.2,0.1,0.5,0.1,0.8,0c0.1,0,0.2-0.1,0.2-0.2l0,0v-3.2l0,0
		c0-0.1-0.1-0.2-0.2-0.2c-0.2-0.1-0.5-0.1-0.8,0c-0.1,0-0.2,0.1-0.2,0.2V254.9z"/>
	<path class="st7" d="M357.4,177.4v9.4l0,0c0.1,0.6,0.5,1.2,1.1,1.5c1.6,0.8,3.4,0.8,5,0c0.6-0.3,1-0.8,1-1.5l0,0v-9.4l0,0
		c-0.1-0.6-0.4-1.2-1-1.4c-1.6-0.8-3.4-0.8-5,0C357.9,176.3,357.5,176.8,357.4,177.4L357.4,177.4z"/>
	<path class="st5" d="M355.3,168v9.2l0,0c0,1.1,0.7,2.1,1.7,2.5c2.6,1.3,5.6,1.3,8.1,0c1-0.4,1.6-1.4,1.7-2.5l0,0V168l0,0
		c-0.1-1-0.7-1.9-1.7-2.3c-2.6-1.3-5.6-1.3-8.1,0C356,166.1,355.4,167,355.3,168L355.3,168z"/>
	<path class="st2" d="M340.1,179.5L340.1,179.5c0,0.1,0.1,0.2,0.2,0.2c0.2,0.1,0.5,0.1,0.8,0c0.1,0,0.2-0.1,0.2-0.2l0,0v-6.7l0,0
		c0-0.1-0.1-0.2-0.2-0.2c-0.2-0.1-0.5-0.1-0.8,0c-0.1,0-0.2,0.1-0.2,0.2V179.5z"/>
	<path class="st2" d="M340.1,184.8L340.1,184.8c0,0.1,0.1,0.2,0.2,0.2c0.2,0.1,0.5,0.1,0.8,0c0.1,0,0.2-0.1,0.2-0.2l0,0v-3.2l0,0
		c0-0.1-0.1-0.2-0.2-0.2c-0.2-0.1-0.5-0.1-0.8,0c-0.1,0-0.2,0.1-0.2,0.2V184.8z"/>
	<path class="st2" d="M340.1,190.1L340.1,190.1c0,0.1,0.1,0.2,0.2,0.2c0.2,0.1,0.5,0.1,0.8,0c0.1,0,0.2-0.1,0.2-0.2l0,0v-3.2l0,0
		c0-0.1-0.1-0.2-0.2-0.2c-0.2-0.1-0.5-0.1-0.8,0c-0.1,0-0.2,0.1-0.2,0.2V190.1z"/>
	<path class="st2" d="M340.1,195.4L340.1,195.4c0,0.1,0.1,0.2,0.2,0.2c0.2,0.1,0.5,0.1,0.8,0c0.1,0,0.1-0.1,0.2-0.2l0,0v-3.2l0,0
		c0-0.1-0.1-0.2-0.2-0.2c-0.2-0.1-0.5-0.1-0.8,0c-0.1,0-0.2,0.1-0.2,0.2V195.4z"/>
	<path class="st2" d="M340.1,200.7L340.1,200.7c0,0.1,0.1,0.2,0.2,0.2c0.2,0.1,0.5,0.1,0.8,0c0.1,0,0.2-0.1,0.2-0.2l0,0v-3.2l0,0
		c0-0.1-0.1-0.2-0.2-0.2c-0.2-0.1-0.5-0.1-0.8,0c-0.1,0-0.2,0.1-0.2,0.2V200.7z"/>
	<path class="st2" d="M340.1,206L340.1,206c0,0.1,0.1,0.2,0.2,0.2c0.2,0.1,0.5,0.1,0.8,0c0.1,0,0.2-0.1,0.2-0.2l0,0v-3.2l0,0
		c0-0.1-0.1-0.2-0.2-0.2c-0.2-0.1-0.5-0.1-0.8,0c-0.1,0-0.2,0.1-0.2,0.2V206z"/>
	<path class="st2" d="M340.1,211.3L340.1,211.3c0,0.1,0.1,0.2,0.2,0.2c0.2,0.1,0.5,0.1,0.8,0c0.1,0,0.2-0.1,0.2-0.2l0,0v-3.2l0,0
		c0-0.1-0.1-0.2-0.2-0.2c-0.2-0.1-0.5-0.1-0.8,0c-0.1,0-0.2,0.1-0.2,0.2V211.3z"/>
	<path class="st2" d="M340.1,216.6L340.1,216.6c0,0.1,0.1,0.2,0.2,0.2c0.2,0.1,0.5,0.1,0.8,0c0.1,0,0.1-0.1,0.2-0.2l0,0v-3.2l0,0
		c0-0.1-0.1-0.2-0.2-0.2c-0.2-0.1-0.5-0.1-0.8,0c-0.1,0-0.2,0.1-0.2,0.2V216.6z"/>
	<path class="st2" d="M340.1,221.9L340.1,221.9c0,0.1,0.1,0.2,0.2,0.2c0.2,0.1,0.5,0.1,0.8,0c0.1,0,0.2-0.1,0.2-0.2l0,0v-3.2l0,0
		c0-0.1-0.1-0.2-0.2-0.2c-0.2-0.1-0.5-0.1-0.8,0c-0.1,0-0.2,0.1-0.2,0.2V221.9z"/>
	<path class="st2" d="M340.1,227.2L340.1,227.2c0,0.1,0.1,0.2,0.2,0.2c0.2,0.1,0.5,0.1,0.8,0c0.1,0,0.2-0.1,0.2-0.2l0,0V224l0,0
		c0-0.1-0.1-0.2-0.2-0.2c-0.2-0.1-0.5-0.1-0.8,0c-0.1,0-0.2,0.1-0.2,0.2V227.2z"/>
	<path class="st2" d="M340.1,232.5L340.1,232.5c0,0.1,0.1,0.2,0.2,0.2c0.2,0.1,0.5,0.1,0.8,0c0.1,0,0.1-0.1,0.2-0.2l0,0v-3.2l0,0
		c0-0.1-0.1-0.2-0.2-0.2c-0.2-0.1-0.5-0.1-0.8,0c-0.1,0-0.2,0.1-0.2,0.2V232.5z"/>
	<path class="st2" d="M340.1,237.8L340.1,237.8c0,0.1,0.1,0.2,0.2,0.2c0.2,0.1,0.5,0.1,0.8,0c0.1,0,0.1-0.1,0.2-0.2l0,0v-3.2l0,0
		c0-0.1-0.1-0.2-0.2-0.2c-0.2-0.1-0.5-0.1-0.8,0c-0.1,0-0.2,0.1-0.2,0.2V237.8z"/>
	<path class="st2" d="M340.1,243.1L340.1,243.1c0,0.1,0.1,0.2,0.2,0.2c0.2,0.1,0.5,0.1,0.8,0c0.1,0,0.2-0.1,0.2-0.2l0,0v-3.2l0,0
		c0-0.1-0.1-0.2-0.2-0.2c-0.2-0.1-0.5-0.1-0.8,0c-0.1,0-0.2,0.1-0.2,0.2V243.1z"/>
	<path class="st7" d="M337.1,175L337.1,175c0.1,0.6,0.4,1.2,1,1.4c1.6,0.8,3.4,0.8,5,0c0.6-0.3,1-0.8,1-1.4l0,0v-9.4l0,0
		c-0.1-0.6-0.5-1.2-1-1.4c-1.6-0.8-3.4-0.8-5,0c-0.6,0.3-0.9,0.8-1,1.4V175z"/>
	<path class="st5" d="M335,156.2v9.2l0,0c0,1.1,0.6,2.1,1.6,2.5c2.6,1.3,5.6,1.3,8.1,0c1-0.4,1.7-1.4,1.6-2.5l0,0v-9.2l0,0
		c-0.1-1-0.7-1.9-1.7-2.3c-2.6-1.3-5.6-1.3-8.1,0C335.7,154.3,335.1,155.2,335,156.2L335,156.2z"/>
	<path class="st2" d="M380.8,202.9L380.8,202.9c0,0.1,0.1,0.2,0.2,0.2c0.2,0.1,0.5,0.1,0.8,0c0.1,0,0.1-0.1,0.2-0.2l0,0v-6.7l0,0
		c0-0.1-0.1-0.2-0.2-0.2c-0.2-0.1-0.5-0.1-0.8,0c-0.1,0-0.2,0.1-0.2,0.2V202.9z"/>
	<path class="st2" d="M381.9,205L381.9,205c0-0.1-0.1-0.2-0.2-0.2c-0.2-0.1-0.5-0.1-0.8,0c-0.1,0-0.2,0.1-0.2,0.2l0,0v3.2l0,0
		c0,0.1,0.1,0.2,0.2,0.2c0.2,0.1,0.5,0.1,0.8,0c0.1,0,0.2-0.1,0.2-0.2l0,0"/>
	<path class="st2" d="M380.8,213.5L380.8,213.5c0,0.1,0.1,0.2,0.2,0.2c0.2,0.1,0.5,0.1,0.8,0c0.1,0,0.2-0.1,0.2-0.2l0,0v-3.2l0,0
		c0-0.1-0.1-0.2-0.2-0.2c-0.2-0.1-0.5-0.1-0.8,0c-0.1,0-0.2,0.1-0.2,0.2V213.5z"/>
	<path class="st2" d="M380.8,218.8L380.8,218.8c0,0.1,0.1,0.2,0.2,0.2c0.2,0.1,0.5,0.1,0.8,0c0.1,0,0.2-0.1,0.2-0.2l0,0v-3.2l0,0
		c0-0.1-0.1-0.2-0.2-0.2c-0.2-0.1-0.5-0.1-0.8,0c-0.1,0-0.2,0.1-0.2,0.2l0,0"/>
	<path class="st2" d="M380.8,224.1L380.8,224.1c0,0.1,0.1,0.2,0.2,0.2c0.2,0.1,0.5,0.1,0.8,0c0.1,0,0.1-0.1,0.2-0.2l0,0v-3.2l0,0
		c0-0.1-0.1-0.2-0.2-0.2c-0.2-0.1-0.5-0.1-0.8,0c-0.1,0-0.2,0.1-0.2,0.2V224.1z"/>
	<path class="st2" d="M380.8,229.4L380.8,229.4c0,0.1,0.1,0.2,0.2,0.2c0.2,0.1,0.5,0.1,0.8,0c0.1,0,0.2-0.1,0.2-0.2l0,0v-3.2l0,0
		c0-0.1-0.1-0.2-0.2-0.2c-0.2-0.1-0.5-0.1-0.8,0c-0.1,0-0.2,0.1-0.2,0.2l0,0"/>
	<path class="st2" d="M380.8,234.7L380.8,234.7c0,0.1,0.1,0.2,0.2,0.2c0.2,0.1,0.5,0.1,0.8,0c0.1,0,0.2-0.1,0.2-0.2l0,0v-3.2l0,0
		c0-0.1-0.1-0.2-0.2-0.2c-0.2-0.1-0.5-0.1-0.8,0c-0.1,0-0.2,0.1-0.2,0.2V234.7z"/>
	<path class="st2" d="M380.8,240L380.8,240c0,0.1,0.1,0.2,0.2,0.2c0.2,0.1,0.5,0.1,0.8,0c0.1,0,0.2-0.1,0.2-0.2l0,0v-3.2l0,0
		c0-0.1-0.1-0.2-0.2-0.2c-0.2-0.1-0.5-0.1-0.8,0c-0.1,0-0.2,0.1-0.2,0.2l0,0"/>
	<path class="st2" d="M380.8,245.2L380.8,245.2c0,0.1,0.1,0.2,0.2,0.2c0.2,0.1,0.5,0.1,0.8,0c0.1,0,0.1-0.1,0.2-0.2l0,0v-3.2l0,0
		c0-0.1-0.1-0.2-0.2-0.2c-0.2-0.1-0.5-0.1-0.8,0c-0.1,0-0.2,0.1-0.2,0.2V245.2z"/>
	<path class="st2" d="M380.8,250.5L380.8,250.5c0,0.1,0.1,0.2,0.2,0.2c0.2,0.1,0.5,0.1,0.8,0c0.1,0,0.2-0.1,0.2-0.2l0,0v-3.2l0,0
		c0-0.1-0.1-0.2-0.2-0.2c-0.2-0.1-0.5-0.1-0.8,0c-0.1,0-0.2,0.1-0.2,0.2l0,0"/>
	<path class="st2" d="M380.8,252.7v3.2l0,0c0,0.1,0.1,0.2,0.2,0.2c0.2,0.1,0.5,0.1,0.8,0c0.1,0,0.2-0.1,0.2-0.2l0,0v-3.2l0,0
		c0-0.1-0.1-0.2-0.2-0.2c-0.2-0.1-0.5-0.1-0.8,0C380.8,252.5,380.8,252.5,380.8,252.7L380.8,252.7z"/>
	<path class="st2" d="M380.8,261.2L380.8,261.2c0,0.1,0.1,0.2,0.2,0.2c0.2,0.1,0.5,0.1,0.8,0c0.1,0,0.2-0.1,0.2-0.2l0,0V258l0,0
		c0-0.1-0.1-0.2-0.2-0.2c-0.2-0.1-0.5-0.1-0.8,0c-0.1,0-0.2,0.1-0.2,0.2l0,0"/>
	<path class="st2" d="M380.8,266.4L380.8,266.4c0,0.1,0.1,0.2,0.2,0.2c0.2,0.1,0.5,0.1,0.8,0c0.1,0,0.1-0.1,0.2-0.2l0,0v-3.2l0,0
		c0-0.1-0.1-0.2-0.2-0.2c-0.2-0.1-0.5-0.1-0.8,0c-0.1,0-0.2,0.1-0.2,0.2V266.4z"/>
	<path class="st7" d="M377.8,198.4L377.8,198.4c0.1,0.6,0.4,1.2,1,1.4c1.6,0.8,3.4,0.8,5,0c0.6-0.3,0.9-0.8,1-1.4l0,0V189l0,0
		c0-0.6-0.4-1.2-1-1.5c-1.6-0.8-3.4-0.8-5,0c-0.6,0.3-0.9,0.8-1,1.5V198.4z"/>
	<path class="st5" d="M375.6,179.6v9.2l0,0c0,1.1,0.7,2.1,1.6,2.5c2.6,1.3,5.6,1.3,8.1,0c1-0.4,1.6-1.4,1.6-2.5l0,0v-9.2l0,0
		c-0.1-1-0.7-1.9-1.7-2.4c-2.6-1.3-5.6-1.3-8.1,0C376.3,177.7,375.7,178.6,375.6,179.6L375.6,179.6z"/>
	<g id="freepik--cloud--inject-97">
		<path class="st17" d="M278,103.9L278,103.9c0,10.8,6.6,23.3,14.6,28l94.5,54.6l35.5,20.5c6,3.5,11.5,3.7,15.8,1.2l0,0l19.6-11.3
			l0,0c5.2-3,8.6-10.1,8.6-20l0,0c0-18-10.9-38.8-24.4-46.6l-2.6-1.5c0.5-3.1,0.7-6.2,0.7-9.4c0-28.2-17.2-61.1-38.4-73.3
			c-10.1-5.8-19.2-5.9-26.1-1.4l0,0l-18.7,10.7l0,0c-1.5,0.9-2.9,2-4.2,3.3c-2.8-3-6.1-5.5-9.6-7.6c-7.6-4.4-14.5-4.7-19.9-1.6l0,0
			l-19.3,11.2l0,0c-6.6,3.7-10.7,12.3-10.7,24.7c0,0.2,0,0.5,0,0.7l-10.1,5.9l-0.3,0.2l-0.5,0.3l0,0C279.9,94.2,278,98.2,278,103.9z
			"/>
		<path class="st18" d="M278,103.9L278,103.9c0,10.8,6.6,23.3,14.6,28l94.5,54.6l35.5,20.5c6,3.5,11.5,3.7,15.8,1.2l0,0l19.6-11.3
			l0,0c5.2-3,8.6-10.1,8.6-20l0,0c0-18-10.9-38.8-24.4-46.6l-2.6-1.5c0.5-3.1,0.7-6.2,0.7-9.4c0-28.2-17.2-61.1-38.4-73.3
			c-10.1-5.8-19.2-5.9-26.1-1.4l0,0l-18.7,10.7l0,0c-1.5,0.9-2.9,2-4.2,3.3c-2.8-3-6.1-5.5-9.6-7.6c-7.6-4.4-14.5-4.7-19.9-1.6l0,0
			l-19.3,11.2l0,0c-6.6,3.7-10.7,12.3-10.7,24.7c0,0.2,0,0.5,0,0.7l-10.1,5.9l-0.3,0.2l-0.5,0.3l0,0C279.9,94.2,278,98.2,278,103.9z
			"/>
		<path class="st19" d="M323.6,49.5L323.6,49.5c5.3-3.1,12.3-2.8,19.9,1.6c3.5,2.1,6.7,4.6,9.6,7.6l0.4,0.4l-1.7,1l-17.8,10.3
			c-2.9-3.1-6.3-5.9-10-8.1c-7.5-4.3-14.4-4.7-19.6-1.7l0,0L323.6,49.5z"/>
		<path class="st20" d="M353.4,59.1l-1.7,1c0.4-0.5,0.8-1,1.3-1.5L353.4,59.1z"/>
		<path class="st19" d="M375.9,44.6L375.9,44.6c6.9-4.5,16-4.5,26.1,1.4c9.6,5.5,18.4,15.3,25.1,27l-19.5,11.3
			c-6.7-11.7-15.7-21.5-25.1-27c-9.5-5.5-18.1-5.9-24.8-2.2l0,0L375.9,44.6z"/>
		<path class="st19" d="M439.6,128.6l8,5.4c6.8,6,12.6,15.2,15.9,25L444,170.4c-4.2-12.3-12.1-23.6-21.3-28.9l-2.6-1.5L439.6,128.6z
			"/>
		<path class="st2" d="M278,103.9L278,103.9c0,10.8,6.6,23.3,14.6,28l94.5,54.6l0,0l35.5,20.5c13.5,7.8,24.4-0.8,24.4-18.8l0,0
			c0-18-10.9-38.9-24.4-46.7l-2.6-1.5c0.5-3.1,0.7-6.2,0.7-9.4c0-28.3-17.2-61.1-38.4-73.3c-20.7-12-37.6,0.2-38.3,27.1
			c-5.4-9.5-12.5-17.5-20.2-22c-16.8-9.6-30.4,0.6-30.4,23c0,2.8,0.2,5.5,0.6,8.3l-1.4-0.8C284.6,88.1,278,93.1,278,103.9z"/>
		<path class="st21" d="M278,103.9L278,103.9c0,10.8,6.6,23.3,14.6,28l94.5,54.6l0,0l35.5,20.5c13.5,7.8,24.4-0.8,24.4-18.8l0,0
			c0-18-10.9-38.9-24.4-46.7l-2.6-1.5c0.5-3.1,0.7-6.2,0.7-9.4c0-28.3-17.2-61.1-38.4-73.3c-20.7-12-37.6,0.2-38.3,27.1
			c-5.4-9.5-12.5-17.5-20.2-22c-16.8-9.6-30.4,0.6-30.4,23c0,2.8,0.2,5.5,0.6,8.3l-1.4-0.8C284.6,88.1,278,93.1,278,103.9z"/>
		<path class="st21" d="M432.1,204.7c-2.5-0.1-4.9-0.9-7-2.2l-130-75.1c-6.6-3.8-12.1-14.7-12.1-23.7c0-3.9,1.2-7.8,3.8-7.8
			c1.2,0.1,2.3,0.5,3.3,1.1l1.4,0.8c1,0.6,2.1,0.8,3.2,0.6c2.7-0.4,4.7-2.9,4.3-5.6l0,0c-0.4-2.5-0.5-5.1-0.5-7.6
			c0-13.1,5.2-21.6,13.3-21.6c3.4,0.1,6.7,1.2,9.6,3c6.7,3.9,13.2,11,18.4,20.1l0,0c0.9,1.5,2.5,2.5,4.2,2.5
			c2.8,0.1,5.1-2.1,5.1-4.9l0,0c0.5-16.6,7.4-26.9,18.1-26.9c3.9,0,8.2,1.3,12.7,3.9c19.8,11.4,35.9,42.4,35.9,69
			c0,2.9-0.2,5.7-0.6,8.6l0,0c-0.3,2.1,0.7,4.1,2.5,5.1l2.6,1.5c11.9,6.9,21.9,26.2,21.9,42.3c0,10.1-3.9,16.7-9.9,16.7L432.1,204.7
			z"/>
	</g>
</g>
</svg>
