<?xml version="1.0" encoding="utf-8"?>
<!-- Generator: Adobe Illustrator 27.0.1, SVG Export Plug-In . SVG Version: 6.00 Build 0)  -->
<svg version="1.1" id="Calque_1" xmlns="http://www.w3.org/2000/svg" xmlns:xlink="http://www.w3.org/1999/xlink" x="0px" y="0px"
	 viewBox="0 0 52 52" style="enable-background:new 0 0 52 52;" xml:space="preserve">
<style type="text/css">
	.st0{fill:#FFFFFF;}
</style>
<g>
	<path d="M21.09,23.82c0.18-0.6,0.28-1.27,0.28-2c0-1.26-0.22-2.24-0.67-2.94s-1.22-1.04-2.3-1.04c-0.62,0-1.03,0.14-1.21,0.41
		s-0.28,0.82-0.28,1.66v5.89h1.02c0.94,0,1.66-0.18,2.15-0.54S20.9,24.42,21.09,23.82z"/>
	<path d="M26,1C12.19,1,1,12.19,1,26s11.19,25,25,25s25-11.19,25-25S39.81,1,26,1z M26.17,34.33c-0.5,0.22-1.1,0.32-1.8,0.32
		c-0.86,0-1.58-0.18-2.14-0.55s-0.93-1.05-1.1-2.04l-0.43-2.4c-0.11-0.67-0.25-1.26-0.41-1.76c-0.16-0.5-0.38-0.9-0.66-1.2
		c-0.26-0.27-0.61-0.41-1.04-0.43c-0.14,0-0.27,0.01-0.42,0.01h-1.26v5.53c0,0.58,0.04,1.01,0.13,1.3c0.09,0.29,0.26,0.48,0.52,0.58
		c0.26,0.1,0.64,0.16,1.15,0.19v0.48c-0.43-0.03-0.98-0.05-1.63-0.06c-0.66-0.01-1.32-0.01-1.99-0.01c-0.77,0-1.49,0-2.17,0.01
		s-1.22,0.03-1.62,0.06v-0.48c0.51-0.03,0.9-0.1,1.15-0.19c0.25-0.09,0.43-0.29,0.52-0.58c0.09-0.29,0.13-0.72,0.13-1.3v-11.9
		c0-0.59-0.04-1.03-0.13-1.31c-0.09-0.28-0.29-0.5-0.55-0.6s-0.64-0.16-1.14-0.18v-0.48c0.4,0.02,0.94,0.03,1.62,0.05
		c0.68,0.02,1.36,0.02,2.03,0.02c0.77,0,1.51-0.01,2.23-0.02c0.72-0.02,1.23-0.02,1.54-0.02c1.49,0,2.72,0.16,3.71,0.49
		c0.98,0.33,1.72,0.8,2.21,1.43s0.73,1.38,0.73,2.26c0,0.54-0.11,1.09-0.34,1.64c-0.22,0.55-0.6,1.06-1.14,1.54
		c-0.54,0.48-1.27,0.85-2.2,1.13c-0.48,0.14-1.03,0.25-1.63,0.32c1.42,0.13,2.47,0.44,3.15,0.93c0.7,0.5,1.15,1.24,1.36,2.23
		l0.55,2.47c0.14,0.64,0.3,1.09,0.46,1.34s0.39,0.38,0.7,0.38c0.21-0.02,0.38-0.07,0.52-0.16c0.14-0.09,0.28-0.22,0.44-0.4
		l0.34,0.29C27.13,33.76,26.66,34.11,26.17,34.33z M40.57,22.01c0.01,0.31,0.03,0.58,0.05,0.8h-0.55c-0.21-1.25-0.5-2.23-0.86-2.94
		c-0.36-0.71-0.82-1.22-1.36-1.52c-0.54-0.3-1.17-0.46-1.91-0.46h-0.79c-0.46,0-0.82,0.04-1.06,0.12c-0.24,0.08-0.4,0.24-0.48,0.48
		s-0.12,0.61-0.12,1.1v6.05h0.94c0.44-0.01,0.81-0.1,1.12-0.29c0.33-0.2,0.6-0.46,0.83-0.79c0.22-0.33,0.4-0.68,0.53-1.04
		c0.13-0.37,0.22-0.71,0.29-1.03h0.55c0-0.01,0-0.01,0-0.02v0.02h0c-0.06,0.9-0.09,1.59-0.08,2.07c0.01,0.48,0.01,0.92,0.01,1.32
		c0,0.4,0.01,0.84,0.02,1.32c0.01,0.48,0.06,1.18,0.12,2.09h-0.55c-0.1-0.56-0.25-1.08-0.46-1.56c-0.21-0.48-0.51-0.87-0.91-1.16
		c-0.4-0.3-0.92-0.44-1.56-0.44v-0.01h-0.85v5.52c0,0.62,0.06,1.09,0.19,1.39c0.13,0.3,0.38,0.5,0.74,0.6
		c0.37,0.1,0.91,0.15,1.63,0.17v0.53c-0.5-0.02-1.14-0.03-1.92-0.05c-0.78-0.02-1.61-0.02-2.47-0.02c-0.69,0-1.36,0.01-2.02,0.02
		c-0.66,0.02-1.25,0.03-1.78,0.05v-0.48c0.51-0.03,0.9-0.1,1.15-0.19c0.25-0.09,0.43-0.29,0.52-0.58c0.09-0.29,0.13-0.72,0.13-1.3
		v-11.9c0-0.59-0.04-1.03-0.13-1.31c-0.09-0.28-0.24-0.47-0.51-0.57c-0.26-0.1-0.64-0.16-1.14-0.18v-0.48
		c0.66,0.02,1.35,0.03,2.09,0.04c0.74,0.01,1.46,0.02,2.18,0.02c0.72,0.01,1.39,0.01,2.02,0.01s1.14,0,1.54,0
		c0.74,0,1.57,0,2.51-0.01c0.93-0.01,1.77-0.03,2.5-0.06c-0.06,0.72-0.11,1.42-0.13,2.09c-0.02,0.67-0.04,1.19-0.04,1.56
		S40.56,21.7,40.57,22.01z"/>
	<path class="st0" d="M37.75,22.47c0,0.01,0,0.01,0,0.02h0V22.47z"/>
</g>
</svg>
